<svg xmlns="http://www.w3.org/2000/svg" xmlns:xlink="http://www.w3.org/1999/xlink" viewBox="0 0 310 310">
  <defs>
    <filter id="Прямоугольник_835" x="0" y="0" width="310" height="310" filterUnits="userSpaceOnUse">
      <feOffset dy="3" input="SourceAlpha"/>
      <feGaussianBlur stdDeviation="25" result="blur"/>
      <feFlood flood-color="#176ce2" flood-opacity="0.102"/>
      <feComposite operator="in" in2="blur"/>
      <feComposite in="SourceGraphic"/>
    </filter>
  </defs>
  <g id="Сгруппировать_2117" data-name="Сгруппировать 2117" transform="translate(-616 -5238)">
    <g id="Сгруппировать_2116" data-name="Сгруппировать 2116">
      <rect id="Прямоугольник_1105" data-name="Прямоугольник 1105" width="100" height="100.503" rx="30" transform="translate(721 5340)" fill="#363b4d"/>
    </g>
    <g id="Сгруппировать_2115" data-name="Сгруппировать 2115">
      <g id="Сгруппировать_2114" data-name="Сгруппировать 2114">
        <g id="Сгруппировать_2108" data-name="Сгруппировать 2108">
          <g transform="matrix(1, 0, 0, 1, 616, 5238)" filter="url(#Прямоугольник_835)">
            <rect id="Прямоугольник_835-2" data-name="Прямоугольник 835" width="160" height="160" rx="50" transform="translate(75 72)" fill="#176ce2" opacity="0.2"/>
          </g>
        </g>
        <rect id="Прямоугольник_836" data-name="Прямоугольник 836" width="100" height="100.503" rx="30" transform="translate(721 5340)" fill="#176ce2" opacity="0.3"/>
        <path id="Icon_color" data-name="Icon color" d="M8,0a4,4,0,1,0,4,4A4,4,0,0,0,8,0Zm6.452,11.66,1.44,2.89a1,1,0,0,1-.89,1.45H1a1,1,0,0,1-.89-1.45L1.55,11.66A3,3,0,0,1,4.242,10h7.523A3,3,0,0,1,14.455,11.66Z" transform="translate(762.997 5382)" fill="#176ce2" fill-rule="evenodd"/>
      </g>
    </g>
  </g>
</svg>
