<svg xmlns="http://www.w3.org/2000/svg" xmlns:xlink="http://www.w3.org/1999/xlink" viewBox="0 0 310 310">
  <defs>
    <filter id="Прямоугольник_837" x="0" y="0" width="310" height="310" filterUnits="userSpaceOnUse">
      <feOffset dy="3" input="SourceAlpha"/>
      <feGaussianBlur stdDeviation="25" result="blur"/>
      <feFlood flood-color="#0f7d92" flood-opacity="0.102"/>
      <feComposite operator="in" in2="blur"/>
      <feComposite in="SourceGraphic"/>
    </filter>
  </defs>
  <g id="Сгруппировать_2120" data-name="Сгруппировать 2120" transform="translate(-1192 -5238)">
    <rect id="Прямоугольник_1106" data-name="Прямоугольник 1106" width="100" height="100.503" rx="30" transform="translate(1297 5340)" fill="#363b4d"/>
    <g id="Сгруппировать_2119" data-name="Сгруппировать 2119">
      <g id="Сгруппировать_2118" data-name="Сгруппировать 2118">
        <g transform="matrix(1, 0, 0, 1, 1192, 5238)" filter="url(#Прямоугольник_837)">
          <rect id="Прямоугольник_837-2" data-name="Прямоугольник 837" width="160" height="160" rx="50" transform="translate(75 72)" fill="#0f7d92" opacity="0.2"/>
        </g>
        <rect id="Прямоугольник_838" data-name="Прямоугольник 838" width="100" height="100.503" rx="30" transform="translate(1297 5340)" fill="#0f7d92" opacity="0.3"/>
        <path id="Icon_color" data-name="Icon color" d="M13.09,8.22l-7,11.42a.76.76,0,0,1-.64.36h-.2a.51.51,0,0,1-.37-.16.49.49,0,0,1-.13-.38L5.31,13H1.74a.76.76,0,0,1-.65-.38L.9,12.29a.49.49,0,0,1,0-.51L7.9.36A.76.76,0,0,1,8.56,0h.2a.51.51,0,0,1,.37.16.49.49,0,0,1,.13.38L8.69,7h3.57a.76.76,0,0,1,.65.38l.19.33A.49.49,0,0,1,13.09,8.22Z" transform="translate(1340.172 5380)" fill="#0f7d92"/>
      </g>
    </g>
  </g>
</svg>
