<svg xmlns="http://www.w3.org/2000/svg" width="267.5" height="250"><defs><filter id="b" x="0" y="0" width="250" height="250" filterUnits="userSpaceOnUse"><feOffset dy="3"/><feGaussianBlur stdDeviation="25" result="blur"/><feFlood flood-color="#e6704a" flood-opacity=".102"/><feComposite operator="in" in2="blur"/><feComposite in="SourceGraphic"/></filter><filter id="c" x="0" y="0" width="250" height="250" filterUnits="userSpaceOnUse"><feOffset dy="3"/><feGaussianBlur stdDeviation="25" result="blur-2"/><feFlood flood-color="#e6704a" flood-opacity=".102"/><feComposite operator="in" in2="blur-2"/><feComposite in="SourceGraphic"/></filter><clipPath id="a"><path fill="none" d="M0 0h70v167H0z"/></clipPath></defs><g data-name="Сгруппировать 2177"><g data-name="Повторяющаяся сетка 158" transform="rotate(-90 94.25 -6.25)" opacity=".2" clip-path="url(#a)" fill="#fff"><circle data-name="Эллипс 31" cx="3" cy="3" r="3"/><circle data-name="Эллипс 31" cx="3" cy="3" r="3" transform="translate(24)"/><circle data-name="Эллипс 31" cx="3" cy="3" r="3" transform="translate(48)"/><circle data-name="Эллипс 31" cx="3" cy="3" r="3" transform="translate(0 24)"/><circle data-name="Эллипс 31" cx="3" cy="3" r="3" transform="translate(24 24)"/><circle data-name="Эллипс 31" cx="3" cy="3" r="3" transform="translate(48 24)"/><circle data-name="Эллипс 31" cx="3" cy="3" r="3" transform="translate(0 48)"/><circle data-name="Эллипс 31" cx="3" cy="3" r="3" transform="translate(24 48)"/><circle data-name="Эллипс 31" cx="3" cy="3" r="3" transform="translate(48 48)"/><circle data-name="Эллипс 31" cx="3" cy="3" r="3" transform="translate(0 72)"/><circle data-name="Эллипс 31" cx="3" cy="3" r="3" transform="translate(24 72)"/><circle data-name="Эллипс 31" cx="3" cy="3" r="3" transform="translate(48 72)"/><circle data-name="Эллипс 31" cx="3" cy="3" r="3" transform="translate(0 96)"/><circle data-name="Эллипс 31" cx="3" cy="3" r="3" transform="translate(24 96)"/><circle data-name="Эллипс 31" cx="3" cy="3" r="3" transform="translate(48 96)"/><circle data-name="Эллипс 31" cx="3" cy="3" r="3" transform="translate(0 120)"/><circle data-name="Эллипс 31" cx="3" cy="3" r="3" transform="translate(24 120)"/><circle data-name="Эллипс 31" cx="3" cy="3" r="3" transform="translate(48 120)"/><circle data-name="Эллипс 31" cx="3" cy="3" r="3" transform="translate(0 144)"/><circle data-name="Эллипс 31" cx="3" cy="3" r="3" transform="translate(24 144)"/><circle data-name="Эллипс 31" cx="3" cy="3" r="3" transform="translate(48 144)"/></g><path data-name="Контур 841" d="M238.113 69.886c-3.426-12.649-24.771-8.7-24.771-8.7s-14.494 22.139-18.71 22.664 8.7-21.345 8.7-21.345c-8.169-.791-28.987 9.224-28.987 9.224s1.318 25.825-2.9 25.3 0-22.926 0-22.926c-7.906 2.372-15.284 11.595-15.284 11.595-9.223 15.021 10.541 26.088 10.541 26.088a42.043 42.043 0 01-5.27 19.237 30.494 30.494 0 00-2.518 5.123h2.155q.264-.867.585-1.673a.012.012 0 010-.01l.01-.023c.148-.333.359-.807.624-1.384.658-1.289 1.1-2.241 1.385-2.929a.017.017 0 000-.006c1.973-4.046 4.815-9.318 6.711-10.424a4.179 4.179 0 01-.462-.988l.462.988c3.689 7.906 22.135 9.223 32.413 7.115s5.8-5.007.264-9.712-17.129-3.464-20.555-5.309 1.581-3.689 8.433-3.162 10.277 7.379 21.345 8.433 19.5-19.764 19.5-19.764c-7.642 2.372-21.345-1.845-21.872-4.48s19.764-2.372 22.926-3.162 8.7-7.115 5.27-19.764" fill="#0f7d92" opacity=".2"/><g data-name="Сгруппировать 2068" transform="translate(448 -5939)"><g transform="translate(-448 5939)" filter="url(#b)"><rect data-name="Прямоугольник 2008" width="100" height="100" rx="25" transform="translate(75 72)" fill="#0d1b39"/></g><g transform="translate(-448 5939)" filter="url(#c)"><rect data-name="Прямоугольник 1880" width="100" height="100" rx="25" transform="translate(75 72)" fill="#0f7d92" opacity=".2"/></g><rect data-name="Прямоугольник 1882" width="62.5" height="62.814" rx="15" transform="translate(-354.25 6029.75)" fill="#0f7d92" opacity=".3"/><path data-name="Icon color" d="M-314.171 6067.153l-8.257-14.125a.622.622 0 00-.532-.3h-.246a.622.622 0 00-.532.3l-8.274 14.125a.646.646 0 000 .622l.115.188a.6.6 0 00.532.311h16.547a.6.6 0 00.532-.311l.115-.188a.646.646 0 000-.622zm-8.1-2.561a.409.409 0 01-.409.409h-.82a.409.409 0 01-.409-.409v-.818a.409.409 0 01.409-.409h.818a.409.409 0 01.409.409zm-.387-2.864a.2.2 0 00.2-.18l.327-2.635a.409.409 0 00-.409-.458h-1.108a.409.409 0 00-.409.458l.327 2.635a.2.2 0 00.2.18z" fill="#0f7d92" fill-rule="evenodd"/></g></g></svg>