<svg xmlns="http://www.w3.org/2000/svg" width="215.309" height="165.439"><path data-name="Контур 662" d="M15.18 14.133C-6.573 31.321 18.874 69.55 18.874 69.55s55.114 9.77 59.647 17.53-48.751.85-48.751.85c5.26 16.546 42.059 48.705 42.059 48.705s49.133-24.053 51.614-15.414-44.59 19.075-44.59 19.075c11.19 13.403 35.269 20.08 35.269 20.08 36.889 5.439 41.967-42.208 41.967-42.208s17.207-7.967 41.8-5.755a64.538 64.538 0 0012.06.632l-1.794-4.192c-1.27.134-2.515.226-3.74.255a.025.025 0 01-.023-.001l-.053-.003c-.77-.01-1.869-.029-3.212-.062h-.012c-3.054-.209-5.277-.277-6.848-.26a.059.059 0 00-.014 0c-9.511-.47-22.13-1.612-25.858-4.38a8.84 8.84 0 01-1.538 1.722l1.538-1.722c12.307-13.753-.48-50.727-13.13-68.962s-14.563-7.11-19.11 7.568 7.517 36.198 6.777 44.396-8.492-.006-13.167-13.77 5.8-26.133-1.362-48.532-54.659-21.47-54.659-21.47c10.971 12.892 14.173 43.05 9.487 46.268S62.172 13.43 58.005 7.939 36.93-3.054 15.179 14.133" fill="#0f7d92" opacity=".2"/></svg>