<svg xmlns="http://www.w3.org/2000/svg" width="58" height="58"><g data-name="48h" transform="translate(-1013 -1975)" fill="#176ce2"><rect data-name="Rectangle 830" width="58" height="58" rx="15" transform="translate(1013 1975)" opacity=".3"/><path data-name="Path 789" d="M1028 2006.041l5.121-6.836h1.988v6.535h1.381v1.777h-1.381v1.942h-1.955v-1.941H1028zm2.256-.3h2.9v-.157q0-.971.021-1.921t.109-1.969zm8.935-1.75a2.656 2.656 0 01-1.09-.926 2.43 2.43 0 01-.393-1.377 2.455 2.455 0 01.41-1.412 2.689 2.689 0 011.152-.94 4.176 4.176 0 011.733-.335 4.135 4.135 0 011.723.335 2.692 2.692 0 011.148.94 2.455 2.455 0 01.41 1.412 2.435 2.435 0 01-.394 1.371 2.656 2.656 0 01-1.083.93 2.969 2.969 0 011.336 1.049 2.775 2.775 0 01.478 1.621 2.753 2.753 0 01-.455 1.572 3 3 0 01-1.264 1.057 4.489 4.489 0 01-1.9.376 4.489 4.489 0 01-1.9-.376 3 3 0 01-1.268-1.053 2.753 2.753 0 01-.456-1.576 2.775 2.775 0 01.482-1.624 2.974 2.974 0 011.33-1.045zm.513-2.119a1.169 1.169 0 00.359.892 1.314 1.314 0 00.94.338 1.3 1.3 0 00.933-.338 1.169 1.169 0 00.359-.892 1.166 1.166 0 00-.359-.9 1.313 1.313 0 00-.933-.335 1.322 1.322 0 00-.94.335 1.166 1.166 0 00-.36.899zm1.3 5.947a1.723 1.723 0 001.186-.4 1.322 1.322 0 00.448-1.039 1.319 1.319 0 00-.448-1.042 1.733 1.733 0 00-1.186-.393 1.733 1.733 0 00-1.186.393 1.319 1.319 0 00-.448 1.042 1.322 1.322 0 00.448 1.039 1.723 1.723 0 001.183.399zm8.337 1.64v-10.254h1.969v4.081a2.771 2.771 0 012.023-.8q2.639 0 2.639 3.322v3.651h-1.969v-3.664a1.885 1.885 0 00-.325-1.186 1.109 1.109 0 00-.926-.414 1.332 1.332 0 00-1.042.448 1.674 1.674 0 00-.4 1.159v3.657z"/></g></svg>