<svg xmlns="http://www.w3.org/2000/svg" viewBox="0 0 310 310"><defs><filter id="a" x="0" y="0" width="310" height="310" filterUnits="userSpaceOnUse"><feOffset dy="3"/><feGaussianBlur stdDeviation="25" result="blur"/><feFlood flood-color="#176ce2" flood-opacity=".102"/><feComposite operator="in" in2="blur"/><feComposite in="SourceGraphic"/></filter></defs><g data-name="Сгруппировать 2117"><g data-name="Сгруппировать 2116"><rect data-name="Прямоугольник 1105" width="100" height="100.503" rx="30" transform="translate(105 102)" fill="#363b4d"/></g><g data-name="Сгруппировать 2115"><g data-name="Сгруппировать 2114" transform="translate(-616 -5238)"><g transform="translate(616 5238)" filter="url(#a)" data-name="Сгруппировать 2108"><rect data-name="Прямоугольник 835" width="160" height="160" rx="50" transform="translate(75 72)" fill="#176ce2" opacity=".2"/></g><rect data-name="Прямоугольник 836" width="100" height="100.503" rx="30" transform="translate(721 5340)" fill="#176ce2" opacity=".3"/><path data-name="Icon color" d="M770.997 5382a4 4 0 104 4 4 4 0 00-4-4zm6.452 11.66l1.44 2.89a1 1 0 01-.89 1.45h-14.002a1 1 0 01-.89-1.45l1.44-2.89a3 3 0 012.692-1.66h7.523a3 3 0 012.69 1.66z" fill="#176ce2" fill-rule="evenodd"/></g></g></g></svg>