<svg xmlns="http://www.w3.org/2000/svg" viewBox="0 0 310 310"><defs><filter id="a" x="0" y="0" width="310" height="310" filterUnits="userSpaceOnUse"><feOffset dy="3"/><feGaussianBlur stdDeviation="25" result="blur"/><feFlood flood-color="#0f7d92" flood-opacity=".102"/><feComposite operator="in" in2="blur"/><feComposite in="SourceGraphic"/></filter></defs><g data-name="Сгруппировать 2120" transform="translate(-1192 -5238)"><rect data-name="Прямоугольник 1106" width="100" height="100.503" rx="30" transform="translate(1297 5340)" fill="#363b4d"/><g data-name="Сгруппировать 2119"><g data-name="Сгруппировать 2118"><g transform="translate(1192 5238)" filter="url(#a)"><rect data-name="Прямоугольник 837" width="160" height="160" rx="50" transform="translate(75 72)" fill="#0f7d92" opacity=".2"/></g><rect data-name="Прямоугольник 838" width="100" height="100.503" rx="30" transform="translate(1297 5340)" fill="#0f7d92" opacity=".3"/><path data-name="Icon color" d="M1353.262 5388.22l-7 11.42a.76.76 0 01-.64.36h-.2a.51.51 0 01-.37-.16.49.49 0 01-.13-.38l.56-6.46h-3.57a.76.76 0 01-.65-.38l-.19-.33a.49.49 0 010-.51l7-11.42a.76.76 0 01.66-.36h.2a.51.51 0 01.37.16.49.49 0 01.13.38l-.57 6.46h3.57a.76.76 0 01.65.38l.19.33a.49.49 0 01-.01.51z" fill="#0f7d92"/></g></g></g></svg>