<svg xmlns="http://www.w3.org/2000/svg" width="56.009" height="56.3" viewBox="0 0 56.009 56.3">
  <g id="Group_2188" data-name="Group 2188" transform="translate(-673 -2456)">
    <g id="Group_2187" data-name="Group 2187">
      <g id="Rectangle_1179" data-name="Rectangle 1179" transform="translate(673 2456)" fill="#fff" stroke="#fff" stroke-width="3">
        <rect width="56.009" height="56.3" rx="17" stroke="none"/>
        <rect x="1.5" y="1.5" width="53.009" height="53.3" rx="15.5" fill="none"/>
      </g>
      <rect id="Rectangle_1178" data-name="Rectangle 1178" width="52.009" height="52.3" rx="15" transform="translate(675 2458)" fill="#176ce2"/>
    </g>
    <path id="Icon_color" data-name="Icon color" d="M2,0H14a2,2,0,0,1,2,2V12.76a3,3,0,0,1-.88,2.12l-4.24,4.24A3,3,0,0,1,8.76,20H2a2,2,0,0,1-2-2V2A2,2,0,0,1,2,0ZM14,2H2V18H8V13a1,1,0,0,1,1-1h5Z" transform="translate(694 2474)" fill="#fff" fill-rule="evenodd"/>
  </g>
</svg>
