<svg xmlns="http://www.w3.org/2000/svg" xmlns:xlink="http://www.w3.org/1999/xlink" width="267.5" height="250" viewBox="0 0 267.5 250">
  <defs>
    <clipPath id="clip-path">
      <rect width="70" height="167" fill="none"/>
    </clipPath>
    <filter id="Прямоугольник_2008" x="0" y="0" width="250" height="250" filterUnits="userSpaceOnUse">
      <feOffset dy="3" input="SourceAlpha"/>
      <feGaussianBlur stdDeviation="25" result="blur"/>
      <feFlood flood-color="#e6704a" flood-opacity="0.102"/>
      <feComposite operator="in" in2="blur"/>
      <feComposite in="SourceGraphic"/>
    </filter>
    <filter id="Прямоугольник_1880" x="0" y="0" width="250" height="250" filterUnits="userSpaceOnUse">
      <feOffset dy="3" input="SourceAlpha"/>
      <feGaussianBlur stdDeviation="25" result="blur-2"/>
      <feFlood flood-color="#e6704a" flood-opacity="0.102"/>
      <feComposite operator="in" in2="blur-2"/>
      <feComposite in="SourceGraphic"/>
    </filter>
  </defs>
  <g id="Сгруппировать_2177" data-name="Сгруппировать 2177" transform="translate(-106 -21)">
    <g id="Повторяющаяся_сетка_158" data-name="Повторяющаяся сетка 158" transform="translate(206.5 109) rotate(-90)" opacity="0.2" clip-path="url(#clip-path)">
      <g transform="translate(-163 -647)">
        <circle id="Эллипс_31" data-name="Эллипс 31" cx="3" cy="3" r="3" transform="translate(163 647)" fill="#fff"/>
      </g>
      <g transform="translate(-139 -647)">
        <circle id="Эллипс_31-2" data-name="Эллипс 31" cx="3" cy="3" r="3" transform="translate(163 647)" fill="#fff"/>
      </g>
      <g transform="translate(-115 -647)">
        <circle id="Эллипс_31-3" data-name="Эллипс 31" cx="3" cy="3" r="3" transform="translate(163 647)" fill="#fff"/>
      </g>
      <g transform="translate(-163 -623)">
        <circle id="Эллипс_31-4" data-name="Эллипс 31" cx="3" cy="3" r="3" transform="translate(163 647)" fill="#fff"/>
      </g>
      <g transform="translate(-139 -623)">
        <circle id="Эллипс_31-5" data-name="Эллипс 31" cx="3" cy="3" r="3" transform="translate(163 647)" fill="#fff"/>
      </g>
      <g transform="translate(-115 -623)">
        <circle id="Эллипс_31-6" data-name="Эллипс 31" cx="3" cy="3" r="3" transform="translate(163 647)" fill="#fff"/>
      </g>
      <g transform="translate(-163 -599)">
        <circle id="Эллипс_31-7" data-name="Эллипс 31" cx="3" cy="3" r="3" transform="translate(163 647)" fill="#fff"/>
      </g>
      <g transform="translate(-139 -599)">
        <circle id="Эллипс_31-8" data-name="Эллипс 31" cx="3" cy="3" r="3" transform="translate(163 647)" fill="#fff"/>
      </g>
      <g transform="translate(-115 -599)">
        <circle id="Эллипс_31-9" data-name="Эллипс 31" cx="3" cy="3" r="3" transform="translate(163 647)" fill="#fff"/>
      </g>
      <g transform="translate(-163 -575)">
        <circle id="Эллипс_31-10" data-name="Эллипс 31" cx="3" cy="3" r="3" transform="translate(163 647)" fill="#fff"/>
      </g>
      <g transform="translate(-139 -575)">
        <circle id="Эллипс_31-11" data-name="Эллипс 31" cx="3" cy="3" r="3" transform="translate(163 647)" fill="#fff"/>
      </g>
      <g transform="translate(-115 -575)">
        <circle id="Эллипс_31-12" data-name="Эллипс 31" cx="3" cy="3" r="3" transform="translate(163 647)" fill="#fff"/>
      </g>
      <g transform="translate(-163 -551)">
        <circle id="Эллипс_31-13" data-name="Эллипс 31" cx="3" cy="3" r="3" transform="translate(163 647)" fill="#fff"/>
      </g>
      <g transform="translate(-139 -551)">
        <circle id="Эллипс_31-14" data-name="Эллипс 31" cx="3" cy="3" r="3" transform="translate(163 647)" fill="#fff"/>
      </g>
      <g transform="translate(-115 -551)">
        <circle id="Эллипс_31-15" data-name="Эллипс 31" cx="3" cy="3" r="3" transform="translate(163 647)" fill="#fff"/>
      </g>
      <g transform="translate(-163 -527)">
        <circle id="Эллипс_31-16" data-name="Эллипс 31" cx="3" cy="3" r="3" transform="translate(163 647)" fill="#fff"/>
      </g>
      <g transform="translate(-139 -527)">
        <circle id="Эллипс_31-17" data-name="Эллипс 31" cx="3" cy="3" r="3" transform="translate(163 647)" fill="#fff"/>
      </g>
      <g transform="translate(-115 -527)">
        <circle id="Эллипс_31-18" data-name="Эллипс 31" cx="3" cy="3" r="3" transform="translate(163 647)" fill="#fff"/>
      </g>
      <g transform="translate(-163 -503)">
        <circle id="Эллипс_31-19" data-name="Эллипс 31" cx="3" cy="3" r="3" transform="translate(163 647)" fill="#fff"/>
      </g>
      <g transform="translate(-139 -503)">
        <circle id="Эллипс_31-20" data-name="Эллипс 31" cx="3" cy="3" r="3" transform="translate(163 647)" fill="#fff"/>
      </g>
      <g transform="translate(-115 -503)">
        <circle id="Эллипс_31-21" data-name="Эллипс 31" cx="3" cy="3" r="3" transform="translate(163 647)" fill="#fff"/>
      </g>
    </g>
    <path id="Контур_841" data-name="Контур 841" d="M562.244,796.036c-3.426-12.649-24.771-8.7-24.771-8.7S522.979,809.475,518.763,810s8.7-21.345,8.7-21.345c-8.169-.791-28.987,9.224-28.987,9.224s1.318,25.825-2.9,25.3,0-22.926,0-22.926c-7.906,2.372-15.284,11.595-15.284,11.595-9.223,15.021,10.541,26.088,10.541,26.088a42.043,42.043,0,0,1-5.27,19.237h0a30.494,30.494,0,0,0-2.518,5.123H485.2q.264-.867.585-1.673a.012.012,0,0,1,0-.01l.01-.023c.148-.333.359-.807.624-1.384v0s0,0,0,0c.658-1.289,1.1-2.241,1.385-2.929a.017.017,0,0,0,0-.006c1.973-4.046,4.815-9.318,6.711-10.424a4.179,4.179,0,0,1-.462-.988l.462.988c3.689,7.906,22.135,9.223,32.413,7.115s5.8-5.007.264-9.712-17.129-3.464-20.555-5.309,1.581-3.689,8.433-3.162,10.277,7.379,21.345,8.433,19.5-19.764,19.5-19.764c-7.642,2.372-21.345-1.845-21.872-4.48s19.764-2.372,22.926-3.162,8.7-7.115,5.27-19.764" transform="translate(-218.131 -705.15)" fill="#0f7d92" opacity="0.2"/>
    <g id="Сгруппировать_2068" data-name="Сгруппировать 2068" transform="translate(554 -5918)">
      <g transform="matrix(1, 0, 0, 1, -448, 5939)" filter="url(#Прямоугольник_2008)">
        <rect id="Прямоугольник_2008-2" data-name="Прямоугольник 2008" width="100" height="100" rx="25" transform="translate(75 72)" fill="#0d1b39"/>
      </g>
      <g transform="matrix(1, 0, 0, 1, -448, 5939)" filter="url(#Прямоугольник_1880)">
        <rect id="Прямоугольник_1880-2" data-name="Прямоугольник 1880" width="100" height="100" rx="25" transform="translate(75 72)" fill="#0f7d92" opacity="0.2"/>
      </g>
      <rect id="Прямоугольник_1882" data-name="Прямоугольник 1882" width="62.5" height="62.814" rx="15" transform="translate(-354.25 6029.75)" fill="#0f7d92" opacity="0.3"/>
      <path id="Icon_color" data-name="Icon color" d="M17.923,14.425,9.666.3A.622.622,0,0,0,9.134,0H8.888a.622.622,0,0,0-.532.3L.082,14.425a.646.646,0,0,0,0,.622l.115.188a.6.6,0,0,0,.532.311H17.276a.6.6,0,0,0,.532-.311l.115-.188A.646.646,0,0,0,17.923,14.425Zm-8.1-2.561a.409.409,0,0,1-.409.409H8.594a.409.409,0,0,1-.409-.409v-.818a.409.409,0,0,1,.409-.409h.818a.409.409,0,0,1,.409.409ZM9.436,9a.2.2,0,0,0,.2-.18l.327-2.635a.409.409,0,0,0-.409-.458H8.446a.409.409,0,0,0-.409.458L8.364,8.82a.2.2,0,0,0,.2.18Z" transform="translate(-332.094 6052.728)" fill="#0f7d92" fill-rule="evenodd"/>
    </g>
  </g>
</svg>
