<svg xmlns="http://www.w3.org/2000/svg" xmlns:xlink="http://www.w3.org/1999/xlink" width="440.258" height="293" viewBox="0 0 440.258 293">
  <defs>
    <clipPath id="clip-path">
      <rect width="82" height="199" fill="none"/>
    </clipPath>
    <filter id="Прямоугольник_1588" x="101.258" y="0" width="293" height="293" filterUnits="userSpaceOnUse">
      <feOffset dy="3" input="SourceAlpha"/>
      <feGaussianBlur stdDeviation="25" result="blur"/>
      <feFlood flood-color="#176ce2" flood-opacity="0.102"/>
      <feComposite operator="in" in2="blur"/>
      <feComposite in="SourceGraphic"/>
    </filter>
    <filter id="Прямоугольник_937" x="101.258" y="0" width="293" height="293" filterUnits="userSpaceOnUse">
      <feOffset dy="3" input="SourceAlpha"/>
      <feGaussianBlur stdDeviation="25" result="blur-2"/>
      <feFlood flood-color="#176ce2" flood-opacity="0.102"/>
      <feComposite operator="in" in2="blur-2"/>
      <feComposite in="SourceGraphic"/>
    </filter>
  </defs>
  <g id="Сгруппировать_2171" data-name="Сгруппировать 2171" transform="translate(-808.742 -89)">
    <g id="Сгруппировать_2170" data-name="Сгруппировать 2170">
      <path id="Контур_662" data-name="Контур 662" d="M141.048,7.809C122.745-13.013,85.9,14.4,85.9,14.4S79.029,69.95,71.516,74.883s-3.4-48.64-3.4-48.64c-16.248,6.118-46.437,44.55-46.437,44.55S48.27,118.6,39.773,121.53,18.39,78,18.39,78C5.591,89.876.183,114.271.183,114.271c-3.5,37.123,44.347,39.7,44.347,39.7s8.857,16.767,7.935,41.442h0a64.538,64.538,0,0,0,0,12.076l4.092-2.01c-.2-1.262-.357-2.5-.45-3.722a.025.025,0,0,1,0-.023c0-.018,0-.035,0-.053-.031-.77-.069-1.868-.106-3.211v-.005s0,0,0-.007c.048-3.061,0-5.284-.1-6.852a.059.059,0,0,0,0-.014c-.028-9.523.451-22.185,3.02-26.052a8.84,8.84,0,0,1-1.8-1.446l1.8,1.446c14.379,11.57,50.633-3.134,68.181-16.722s6.338-14.914-8.558-18.686-35.755,9.4-43.98,9.09-.439-8.48,13.062-13.869,26.4,4.424,48.394-3.9S154.6,65.745,154.6,65.745c-12.3,11.631-42.249,16.407-45.708,11.895S144.208,54.7,149.475,50.252s9.875-21.621-8.427-42.443" transform="translate(808.74 285.688) rotate(-87)" fill="#0f7d92" opacity="0.2"/>
      <g id="Сгруппировать_2169" data-name="Сгруппировать 2169">
        <g id="Повторяющаяся_сетка_35" data-name="Повторяющаяся сетка 35" transform="translate(1024 183) rotate(-90)" opacity="0.2" clip-path="url(#clip-path)">
          <g transform="translate(-163 -647)">
            <circle id="Эллипс_31" data-name="Эллипс 31" cx="3" cy="3" r="3" transform="translate(163 647)" fill="#fff"/>
          </g>
          <g transform="translate(-139 -647)">
            <circle id="Эллипс_31-2" data-name="Эллипс 31" cx="3" cy="3" r="3" transform="translate(163 647)" fill="#fff"/>
          </g>
          <g transform="translate(-115 -647)">
            <circle id="Эллипс_31-3" data-name="Эллипс 31" cx="3" cy="3" r="3" transform="translate(163 647)" fill="#fff"/>
          </g>
          <g transform="translate(-91 -647)">
            <circle id="Эллипс_31-4" data-name="Эллипс 31" cx="3" cy="3" r="3" transform="translate(163 647)" fill="#fff"/>
          </g>
          <g transform="translate(-163 -623)">
            <circle id="Эллипс_31-5" data-name="Эллипс 31" cx="3" cy="3" r="3" transform="translate(163 647)" fill="#fff"/>
          </g>
          <g transform="translate(-139 -623)">
            <circle id="Эллипс_31-6" data-name="Эллипс 31" cx="3" cy="3" r="3" transform="translate(163 647)" fill="#fff"/>
          </g>
          <g transform="translate(-115 -623)">
            <circle id="Эллипс_31-7" data-name="Эллипс 31" cx="3" cy="3" r="3" transform="translate(163 647)" fill="#fff"/>
          </g>
          <g transform="translate(-91 -623)">
            <circle id="Эллипс_31-8" data-name="Эллипс 31" cx="3" cy="3" r="3" transform="translate(163 647)" fill="#fff"/>
          </g>
          <g transform="translate(-163 -599)">
            <circle id="Эллипс_31-9" data-name="Эллипс 31" cx="3" cy="3" r="3" transform="translate(163 647)" fill="#fff"/>
          </g>
          <g transform="translate(-139 -599)">
            <circle id="Эллипс_31-10" data-name="Эллипс 31" cx="3" cy="3" r="3" transform="translate(163 647)" fill="#fff"/>
          </g>
          <g transform="translate(-115 -599)">
            <circle id="Эллипс_31-11" data-name="Эллипс 31" cx="3" cy="3" r="3" transform="translate(163 647)" fill="#fff"/>
          </g>
          <g transform="translate(-91 -599)">
            <circle id="Эллипс_31-12" data-name="Эллипс 31" cx="3" cy="3" r="3" transform="translate(163 647)" fill="#fff"/>
          </g>
          <g transform="translate(-163 -575)">
            <circle id="Эллипс_31-13" data-name="Эллипс 31" cx="3" cy="3" r="3" transform="translate(163 647)" fill="#fff"/>
          </g>
          <g transform="translate(-139 -575)">
            <circle id="Эллипс_31-14" data-name="Эллипс 31" cx="3" cy="3" r="3" transform="translate(163 647)" fill="#fff"/>
          </g>
          <g transform="translate(-115 -575)">
            <circle id="Эллипс_31-15" data-name="Эллипс 31" cx="3" cy="3" r="3" transform="translate(163 647)" fill="#fff"/>
          </g>
          <g transform="translate(-91 -575)">
            <circle id="Эллипс_31-16" data-name="Эллипс 31" cx="3" cy="3" r="3" transform="translate(163 647)" fill="#fff"/>
          </g>
          <g transform="translate(-163 -551)">
            <circle id="Эллипс_31-17" data-name="Эллипс 31" cx="3" cy="3" r="3" transform="translate(163 647)" fill="#fff"/>
          </g>
          <g transform="translate(-139 -551)">
            <circle id="Эллипс_31-18" data-name="Эллипс 31" cx="3" cy="3" r="3" transform="translate(163 647)" fill="#fff"/>
          </g>
          <g transform="translate(-115 -551)">
            <circle id="Эллипс_31-19" data-name="Эллипс 31" cx="3" cy="3" r="3" transform="translate(163 647)" fill="#fff"/>
          </g>
          <g transform="translate(-91 -551)">
            <circle id="Эллипс_31-20" data-name="Эллипс 31" cx="3" cy="3" r="3" transform="translate(163 647)" fill="#fff"/>
          </g>
          <g transform="translate(-163 -527)">
            <circle id="Эллипс_31-21" data-name="Эллипс 31" cx="3" cy="3" r="3" transform="translate(163 647)" fill="#fff"/>
          </g>
          <g transform="translate(-139 -527)">
            <circle id="Эллипс_31-22" data-name="Эллипс 31" cx="3" cy="3" r="3" transform="translate(163 647)" fill="#fff"/>
          </g>
          <g transform="translate(-115 -527)">
            <circle id="Эллипс_31-23" data-name="Эллипс 31" cx="3" cy="3" r="3" transform="translate(163 647)" fill="#fff"/>
          </g>
          <g transform="translate(-91 -527)">
            <circle id="Эллипс_31-24" data-name="Эллипс 31" cx="3" cy="3" r="3" transform="translate(163 647)" fill="#fff"/>
          </g>
          <g transform="translate(-163 -503)">
            <circle id="Эллипс_31-25" data-name="Эллипс 31" cx="3" cy="3" r="3" transform="translate(163 647)" fill="#fff"/>
          </g>
          <g transform="translate(-139 -503)">
            <circle id="Эллипс_31-26" data-name="Эллипс 31" cx="3" cy="3" r="3" transform="translate(163 647)" fill="#fff"/>
          </g>
          <g transform="translate(-115 -503)">
            <circle id="Эллипс_31-27" data-name="Эллипс 31" cx="3" cy="3" r="3" transform="translate(163 647)" fill="#fff"/>
          </g>
          <g transform="translate(-91 -503)">
            <circle id="Эллипс_31-28" data-name="Эллипс 31" cx="3" cy="3" r="3" transform="translate(163 647)" fill="#fff"/>
          </g>
          <g transform="translate(-163 -479)">
            <circle id="Эллипс_31-29" data-name="Эллипс 31" cx="3" cy="3" r="3" transform="translate(163 647)" fill="#fff"/>
          </g>
          <g transform="translate(-139 -479)">
            <circle id="Эллипс_31-30" data-name="Эллипс 31" cx="3" cy="3" r="3" transform="translate(163 647)" fill="#fff"/>
          </g>
          <g transform="translate(-115 -479)">
            <circle id="Эллипс_31-31" data-name="Эллипс 31" cx="3" cy="3" r="3" transform="translate(163 647)" fill="#fff"/>
          </g>
          <g transform="translate(-91 -479)">
            <circle id="Эллипс_31-32" data-name="Эллипс 31" cx="3" cy="3" r="3" transform="translate(163 647)" fill="#fff"/>
          </g>
          <g transform="translate(-163 -455)">
            <circle id="Эллипс_31-33" data-name="Эллипс 31" cx="3" cy="3" r="3" transform="translate(163 647)" fill="#fff"/>
          </g>
          <g transform="translate(-139 -455)">
            <circle id="Эллипс_31-34" data-name="Эллипс 31" cx="3" cy="3" r="3" transform="translate(163 647)" fill="#fff"/>
          </g>
          <g transform="translate(-115 -455)">
            <circle id="Эллипс_31-35" data-name="Эллипс 31" cx="3" cy="3" r="3" transform="translate(163 647)" fill="#fff"/>
          </g>
          <g transform="translate(-91 -455)">
            <circle id="Эллипс_31-36" data-name="Эллипс 31" cx="3" cy="3" r="3" transform="translate(163 647)" fill="#fff"/>
          </g>
        </g>
        <path id="Контур_663" data-name="Контур 663" d="M617.344,802.094c-5.662-20.906-40.941-14.373-40.941-14.373s-23.955,36.586-30.924,37.457S559.853,789.9,559.853,789.9c-13.5-1.307-47.91,15.245-47.91,15.245s2.178,42.683-4.791,41.812,0-37.892,0-37.892c-13.067,3.92-25.262,19.164-25.262,19.164-15.244,24.826,17.422,43.119,17.422,43.119s.435,14.809-8.711,31.8h0a50.394,50.394,0,0,0-4.162,8.467H490q.437-1.433.967-2.765a.02.02,0,0,1,.007-.016l.016-.038c.244-.55.594-1.333,1.032-2.288l0,0s0,0,0,0c1.088-2.13,1.823-3.7,2.288-4.841a.03.03,0,0,0,0-.01c3.261-6.688,7.959-15.4,11.092-17.229a6.9,6.9,0,0,1-.763-1.634l.763,1.634c6.1,13.067,36.585,15.244,53.572,11.76s9.582-8.276.436-16.051-28.31-5.726-33.973-8.775,2.613-6.1,13.938-5.227,16.986,12.2,35.279,13.937,32.23-32.666,32.23-32.666c-12.631,3.92-35.279-3.049-36.15-7.4s32.666-3.92,37.892-5.227,14.373-11.76,8.711-32.666" transform="translate(629.869 -640.463)" fill="#0f7d92" opacity="0.2"/>
        <g id="Сгруппировать_1618" data-name="Сгруппировать 1618" transform="translate(-199 49)">
          <g transform="matrix(1, 0, 0, 1, 1007.74, 40)" filter="url(#Прямоугольник_1588)">
            <rect id="Прямоугольник_1588-2" data-name="Прямоугольник 1588" width="143" height="143" rx="50" transform="translate(176.26 72)" fill="#0d1b39"/>
          </g>
          <g transform="matrix(1, 0, 0, 1, 1007.74, 40)" filter="url(#Прямоугольник_937)">
            <rect id="Прямоугольник_937-2" data-name="Прямоугольник 937" width="143" height="143" rx="50" transform="translate(176.26 72)" fill="#0f7d92" opacity="0.2"/>
          </g>
          <rect id="Прямоугольник_941" data-name="Прямоугольник 941" width="58.009" height="58.3" rx="15" transform="translate(1226 154)" fill="#0f7d92" opacity="0.3"/>
          <path id="Icon_color" data-name="Icon color" d="M21.905,17.63,11.813.37a.76.76,0,0,0-.65-.37h-.3a.76.76,0,0,0-.65.37L.1,17.63a.79.79,0,0,0,0,.76l.14.23A.73.73,0,0,0,.89,19H21.115a.73.73,0,0,0,.65-.38l.14-.23A.79.79,0,0,0,21.905,17.63ZM12,14.5a.5.5,0,0,1-.5.5h-1a.5.5,0,0,1-.5-.5v-1a.5.5,0,0,1,.5-.5h1a.5.5,0,0,1,.5.5Zm-.47-3.5a.25.25,0,0,0,.25-.22l.4-3.22a.5.5,0,0,0-.5-.56h-1.36a.5.5,0,0,0-.5.56l.4,3.22a.25.25,0,0,0,.25.22Z" transform="translate(1244.997 174)" fill="#0f7d92" fill-rule="evenodd"/>
        </g>
      </g>
    </g>
  </g>
</svg>
