<svg xmlns="http://www.w3.org/2000/svg" width="58" height="58"><g transform="translate(-743 -1836)" fill="#176ce2"><rect data-name="Rectangle 830" width="58" height="58" rx="15" transform="translate(743 1836)" opacity=".3"/><path data-name="Icon color" d="M772 1855a10 10 0 107.071 2.929A10 10 0 00772 1855zm0 18a8 8 0 115.657-2.343A8 8 0 01772 1873zm.88-13.5v5.14l3.63 3.63a.51.51 0 010 .71l-.53.53a.51.51 0 01-.71 0l-4-4a.53.53 0 01-.15-.35v-5.66a.5.5 0 01.5-.5h.76a.5.5 0 01.5.5z" fill-rule="evenodd"/></g></svg>