<svg xmlns="http://www.w3.org/2000/svg" width="34.717" height="34.891"><g data-name="Сгруппировать 2094" fill="#fff"><path data-name="Контур 783" d="M11 0h12.716a11 11 0 0111 11v12.89a11 11 0 01-11 11H11a11 11 0 01-11-11V11A11 11 0 0111 0z" opacity=".3"/><path data-name="Icon color" d="M11.92 12h10.865a1.358 1.358 0 011.358 1.358v8.149a1.358 1.358 0 01-1.358 1.358H11.92a1.358 1.358 0 01-1.358-1.358v-8.149A1.358 1.358 0 0111.92 12zm6.553 7.775l4.312-3.022v-1.426l-4.991 3.5a.774.774 0 01-.883 0l-4.991-3.5v1.426l4.312 3.022a1.956 1.956 0 002.241 0z" fill-rule="evenodd"/></g></svg>