<svg xmlns="http://www.w3.org/2000/svg" width="199" height="82"><defs><clipPath id="a"><path fill="none" d="M0 0h82v199H0z"/></clipPath></defs><g data-name="Повторяющаяся сетка 11" transform="rotate(-90 41 41)" opacity=".2" clip-path="url(#a)" fill="#176ce2"><circle data-name="Эллипс 31" cx="3" cy="3" r="3"/><circle data-name="Эллипс 31" cx="3" cy="3" r="3" transform="translate(24)"/><circle data-name="Эллипс 31" cx="3" cy="3" r="3" transform="translate(48)"/><circle data-name="Эллипс 31" cx="3" cy="3" r="3" transform="translate(72)"/><circle data-name="Эллипс 31" cx="3" cy="3" r="3" transform="translate(0 24)"/><circle data-name="Эллипс 31" cx="3" cy="3" r="3" transform="translate(24 24)"/><circle data-name="Эллипс 31" cx="3" cy="3" r="3" transform="translate(48 24)"/><circle data-name="Эллипс 31" cx="3" cy="3" r="3" transform="translate(72 24)"/><circle data-name="Эллипс 31" cx="3" cy="3" r="3" transform="translate(0 48)"/><circle data-name="Эллипс 31" cx="3" cy="3" r="3" transform="translate(24 48)"/><circle data-name="Эллипс 31" cx="3" cy="3" r="3" transform="translate(48 48)"/><circle data-name="Эллипс 31" cx="3" cy="3" r="3" transform="translate(72 48)"/><circle data-name="Эллипс 31" cx="3" cy="3" r="3" transform="translate(0 72)"/><circle data-name="Эллипс 31" cx="3" cy="3" r="3" transform="translate(24 72)"/><circle data-name="Эллипс 31" cx="3" cy="3" r="3" transform="translate(48 72)"/><circle data-name="Эллипс 31" cx="3" cy="3" r="3" transform="translate(72 72)"/><circle data-name="Эллипс 31" cx="3" cy="3" r="3" transform="translate(0 96)"/><circle data-name="Эллипс 31" cx="3" cy="3" r="3" transform="translate(24 96)"/><circle data-name="Эллипс 31" cx="3" cy="3" r="3" transform="translate(48 96)"/><circle data-name="Эллипс 31" cx="3" cy="3" r="3" transform="translate(72 96)"/><circle data-name="Эллипс 31" cx="3" cy="3" r="3" transform="translate(0 120)"/><circle data-name="Эллипс 31" cx="3" cy="3" r="3" transform="translate(24 120)"/><circle data-name="Эллипс 31" cx="3" cy="3" r="3" transform="translate(48 120)"/><circle data-name="Эллипс 31" cx="3" cy="3" r="3" transform="translate(72 120)"/><circle data-name="Эллипс 31" cx="3" cy="3" r="3" transform="translate(0 144)"/><circle data-name="Эллипс 31" cx="3" cy="3" r="3" transform="translate(24 144)"/><circle data-name="Эллипс 31" cx="3" cy="3" r="3" transform="translate(48 144)"/><circle data-name="Эллипс 31" cx="3" cy="3" r="3" transform="translate(72 144)"/><circle data-name="Эллипс 31" cx="3" cy="3" r="3" transform="translate(0 168)"/><circle data-name="Эллипс 31" cx="3" cy="3" r="3" transform="translate(24 168)"/><circle data-name="Эллипс 31" cx="3" cy="3" r="3" transform="translate(48 168)"/><circle data-name="Эллипс 31" cx="3" cy="3" r="3" transform="translate(72 168)"/><circle data-name="Эллипс 31" cx="3" cy="3" r="3" transform="translate(0 192)"/><circle data-name="Эллипс 31" cx="3" cy="3" r="3" transform="translate(24 192)"/><circle data-name="Эллипс 31" cx="3" cy="3" r="3" transform="translate(48 192)"/><circle data-name="Эллипс 31" cx="3" cy="3" r="3" transform="translate(72 192)"/></g></svg>