<svg xmlns="http://www.w3.org/2000/svg" width="58" height="58"><g transform="translate(-621 -682)"><rect data-name="Rectangle 938" width="58" height="58" rx="15" transform="translate(621 682)" fill="rgba(23,108,226,0.1)"/><path data-name="Icon color" d="M653 709h5a2 2 0 012 2v2.84a6.059 6.059 0 01-.43 2.23l-1.07 2.67a2 2 0 01-1.85 1.26h-6.24a3.41 3.41 0 01-2.41-1 3.41 3.41 0 00-2.41-.95H645v-8h.89a2 2 0 001.7-.94l1.22-2a4.06 4.06 0 011.9-1.6l.43-.17a2 2 0 001.15-1.22l.6-1.78a.5.5 0 01.47-.34h.14a1.5 1.5 0 011.5 1.5v.39a4.15 4.15 0 01-.45 2zm-10.5 10a.5.5 0 00.5-.5v-9a.5.5 0 00-.5-.5h-2a.5.5 0 00-.5.5v9a.5.5 0 00.5.5z" fill="#176ce2" fill-rule="evenodd"/></g></svg>