<svg xmlns="http://www.w3.org/2000/svg" width="55" height="55"><g transform="translate(-39.74 -40)" fill="#0f7d92"><rect data-name="Rectangle 941" width="55" height="55" rx="15" transform="translate(39.74 40)" opacity=".3"/><path data-name="Icon color" d="M59.64 60h15.186a1.9 1.9 0 011.9 1.9v11.389a1.9 1.9 0 01-1.9 1.9H59.64a1.9 1.9 0 01-1.9-1.9V61.9a1.9 1.9 0 011.9-1.9zm9.16 10.869l6.028-4.224v-1.994l-6.979 4.889a1.082 1.082 0 01-1.234 0l-6.975-4.889v1.994l6.028 4.224a2.734 2.734 0 003.131 0z" fill-rule="evenodd"/></g></svg>