<svg xmlns="http://www.w3.org/2000/svg" width="58" height="58"><g transform="translate(-612 -682)"><rect data-name="Rectangle 938" width="58" height="58" rx="15" transform="translate(612 682)" fill="rgba(15,125,146,0.1)"/><path data-name="Icon color" d="M647.002 711.76a3 3 0 00.88 2.12l.83.83a1 1 0 01.29.7v.59a1 1 0 01-1 1h-14a1 1 0 01-1-1v-.59a1 1 0 01.29-.7l.83-.83a3 3 0 00.88-2.12V709a6 6 0 011.2-3.6l.9-1.2a3 3 0 012.4-1.2h.5v-1.5a.5.5 0 01.5-.5h1a.5.5 0 01.5.5v1.5h.5a3 3 0 012.4 1.2l.9 1.2a6 6 0 011.2 3.6zm-6 9.24a2 2 0 002-2h-4a2 2 0 002 2zm-6.41-16.79a.36.36 0 00-.06-.5l-1-.78a.4.4 0 00-.3-.09.37.37 0 00-.23.16 10.05 10.05 0 00-2 5.47.47.47 0 00.14.37.48.48 0 00.36.16h1a.51.51 0 00.5-.48 8.12 8.12 0 011.59-4.31zm14.14-1.37a.38.38 0 01.27.16 10.129 10.129 0 012 5.47.55.55 0 01-.15.37.5.5 0 01-.36.16h-1a.5.5 0 01-.49-.48 8.12 8.12 0 00-1.64-4.31.36.36 0 01.06-.5l1-.78a.44.44 0 01.31-.09z" fill="#0f7d92" fill-rule="evenodd"/></g></svg>