<svg xmlns="http://www.w3.org/2000/svg" width="58" height="58"><g transform="translate(-1013 -1836)" fill="#e6704a"><rect data-name="Rectangle 830" width="58" height="58" rx="15" transform="translate(1013 1836)" opacity=".3"/><path data-name="Icon color" d="M1046.427 1870.746a.49.49 0 00-.63-.06 6.9 6.9 0 01-3.85 1.16 7 7 0 01-1.4-13.85.5.5 0 00.4-.49v-2a.46.46 0 00-.18-.38.48.48 0 00-.4-.12 10 10 0 107.45 18 .53.53 0 00.2-.37.5.5 0 00-.14-.39zm-3.48-13.24v-2a.46.46 0 01.18-.38.48.48 0 01.4-.12 10 10 0 018.3 8.3.48.48 0 01-.12.4.46.46 0 01-.38.18h-2a.5.5 0 01-.49-.4 7 7 0 00-5.49-5.49.5.5 0 01-.4-.49zm6.38 8.34h2a.46.46 0 01.43.18.48.48 0 01.12.4 10.171 10.171 0 01-1.77 4.28.51.51 0 01-.37.21.5.5 0 01-.39-.14l-1.45-1.45a.5.5 0 01-.06-.63 6.63 6.63 0 001-2.45.5.5 0 01.49-.4z" fill-rule="evenodd"/></g></svg>