<svg xmlns="http://www.w3.org/2000/svg" width="58" height="58" viewBox="0 0 58 58">
  <g id="approvals" transform="translate(-743 -1836)">
    <rect id="Rectangle_830" data-name="Rectangle 830" width="58" height="58" rx="15" transform="translate(743 1836)" fill="#176ce2" opacity="0.3"/>
    <path id="Icon_color" data-name="Icon color" d="M10,0a10,10,0,1,0,7.071,2.929A10,10,0,0,0,10,0Zm0,18a8,8,0,1,1,5.657-2.343A8,8,0,0,1,10,18Zm.88-13.5V9.64l3.63,3.63a.51.51,0,0,1,0,.71l-.53.53a.51.51,0,0,1-.71,0l-4-4a.53.53,0,0,1-.15-.35V4.5a.5.5,0,0,1,.5-.5h.76A.5.5,0,0,1,10.88,4.5Z" transform="translate(762 1855)" fill="#176ce2" fill-rule="evenodd"/>
  </g>
</svg>
