<svg xmlns="http://www.w3.org/2000/svg" width="58" height="58" viewBox="0 0 58 58">
  <g id="credit" transform="translate(-1013 -2114)">
    <rect id="Rectangle_830" data-name="Rectangle 830" width="58" height="58" rx="15" transform="translate(1013 2114)" fill="#e6704a" opacity="0.3"/>
    <path id="Icon_color" data-name="Icon color" d="M16.5,16H1.5a.5.5,0,0,1-.5-.5v-2a.5.5,0,0,1,.5-.5H3V6H1.5A.5.5,0,0,1,1,5.5V3.67a1,1,0,0,1,.62-.92L8.02.15A2,2,0,0,1,8.78,0h.44A2,2,0,0,1,10,.15l6.38,2.6a1,1,0,0,1,.62.92V5.5a.5.5,0,0,1-.5.5H15v7h1.5a.5.5,0,0,1,.5.5v2A.5.5,0,0,1,16.5,16ZM13,6H10v7h3ZM5,6H8v7H5ZM.5,18h17a.5.5,0,0,1,.5.5v1a.5.5,0,0,1-.5.5H.5a.5.5,0,0,1-.5-.5v-1A.5.5,0,0,1,.5,18Z" transform="translate(1033 2133)" fill="#e6704a" fill-rule="evenodd"/>
  </g>
</svg>
