<svg xmlns="http://www.w3.org/2000/svg" width="58" height="58" viewBox="0 0 58 58">
  <g id="notification" transform="translate(-612 -682)">
    <rect id="Rectangle_938" data-name="Rectangle 938" width="58" height="58" rx="15" transform="translate(612 682)" fill="rgba(15,125,146,0.1)"/>
    <path id="Icon_color" data-name="Icon color" d="M17,10.76a3,3,0,0,0,.88,2.12l.83.83a1,1,0,0,1,.29.7V15a1,1,0,0,1-1,1H4a1,1,0,0,1-1-1v-.59a1,1,0,0,1,.29-.7l.83-.83A3,3,0,0,0,5,10.76V8A6,6,0,0,1,6.2,4.4l.9-1.2A3,3,0,0,1,9.5,2H10V.5a.5.5,0,0,1,.5-.5h1a.5.5,0,0,1,.5.5V2h.5a3,3,0,0,1,2.4,1.2l.9,1.2A6,6,0,0,1,17,8ZM11,20a2,2,0,0,0,2-2H9A2,2,0,0,0,11,20ZM4.59,3.21a.36.36,0,0,0-.06-.5l-1-.78a.4.4,0,0,0-.3-.09A.37.37,0,0,0,3,2,10.05,10.05,0,0,0,1,7.47a.47.47,0,0,0,.14.37A.48.48,0,0,0,1.5,8h1A.51.51,0,0,0,3,7.52,8.12,8.12,0,0,1,4.59,3.21ZM18.73,1.84A.38.38,0,0,1,19,2a10.129,10.129,0,0,1,2,5.47.55.55,0,0,1-.15.37.5.5,0,0,1-.36.16h-1A.5.5,0,0,1,19,7.52a8.12,8.12,0,0,0-1.64-4.31.36.36,0,0,1,.06-.5l1-.78A.44.44,0,0,1,18.73,1.84Z" transform="translate(630.002 701)" fill="#0f7d92" fill-rule="evenodd"/>
  </g>
</svg>
