<svg xmlns="http://www.w3.org/2000/svg" width="58" height="58" viewBox="0 0 58 58">
  <g id="rates" transform="translate(-1013 -1836)">
    <rect id="Rectangle_830" data-name="Rectangle 830" width="58" height="58" rx="15" transform="translate(1013 1836)" fill="#e6704a" opacity="0.3"/>
    <path id="Icon_color" data-name="Icon color" d="M14.48,15.9a.49.49,0,0,0-.63-.06A6.9,6.9,0,0,1,10,17,7,7,0,0,1,8.6,3.15.5.5,0,0,0,9,2.66v-2A.46.46,0,0,0,8.82.28a.48.48,0,0,0-.4-.12,10,10,0,1,0,7.45,18,.53.53,0,0,0,.2-.37.5.5,0,0,0-.14-.39ZM11,2.66v-2a.46.46,0,0,1,.18-.38.48.48,0,0,1,.4-.12,10,10,0,0,1,8.3,8.3.48.48,0,0,1-.12.4.46.46,0,0,1-.38.18h-2a.5.5,0,0,1-.49-.4A7,7,0,0,0,11.4,3.15.5.5,0,0,1,11,2.66ZM17.38,11h2a.46.46,0,0,1,.43.18.48.48,0,0,1,.12.4,10.171,10.171,0,0,1-1.77,4.28.51.51,0,0,1-.37.21.5.5,0,0,1-.39-.14l-1.45-1.45a.5.5,0,0,1-.06-.63,6.63,6.63,0,0,0,1-2.45A.5.5,0,0,1,17.38,11Z" transform="translate(1031.947 1854.846)" fill="#e6704a" fill-rule="evenodd"/>
  </g>
</svg>
