<svg xmlns="http://www.w3.org/2000/svg" width="141.294" height="124.853"><path data-name="Контур 584" d="M139.507 15.339C133.845-5.567 98.566.966 98.566.966S74.611 37.552 67.642 38.423 82.016 3.145 82.016 3.145c-13.5-1.307-47.91 15.245-47.91 15.245s2.178 42.683-4.791 41.812 0-37.892 0-37.892C16.248 26.23 4.053 41.474 4.053 41.474-11.191 66.3 21.475 84.593 21.475 84.593s.435 14.809-8.711 31.8a50.393 50.393 0 00-4.162 8.467h3.561q.437-1.433.967-2.765a.02.02 0 01.007-.016l.016-.038c.244-.55.594-1.333 1.032-2.288 1.088-2.13 1.823-3.7 2.288-4.841a.031.031 0 000-.01c3.261-6.688 7.959-15.4 11.092-17.229a6.9 6.9 0 01-.763-1.634l.763 1.634c6.1 13.067 36.585 15.244 53.572 11.76s9.582-8.276.436-16.051-28.31-5.726-33.973-8.775 2.613-6.1 13.938-5.227 16.986 12.2 35.279 13.937 32.23-32.666 32.23-32.666c-12.631 3.92-35.279-3.049-36.15-7.4s32.666-3.92 37.892-5.227 14.373-11.76 8.711-32.666" fill="#0f7d92" opacity=".1"/></svg>