<svg xmlns="http://www.w3.org/2000/svg" width="293" height="293"><defs><filter id="a" x="0" y="0" width="293" height="293" filterUnits="userSpaceOnUse"><feOffset dy="3"/><feGaussianBlur stdDeviation="25" result="blur"/><feFlood flood-color="#176ce2" flood-opacity=".102"/><feComposite operator="in" in2="blur"/><feComposite in="SourceGraphic"/></filter></defs><g data-name="Сгруппировать 1565" transform="translate(-1109 -40)"><g transform="translate(1109 40)" filter="url(#a)"><rect data-name="Прямоугольник 937" width="143" height="143" rx="50" transform="translate(75 72)" fill="#0f7d92" opacity=".2"/></g><rect data-name="Прямоугольник 941" width="58.009" height="58.3" rx="15" transform="translate(1226 154)" fill="#0f7d92" opacity=".3"/><path data-name="Icon color" d="M1248 175h16a2 2 0 012 2v12a2 2 0 01-2 2h-16a2 2 0 01-2-2v-12a2 2 0 012-2zm9.65 11.45L1264 182v-2.1l-7.35 5.15a1.14 1.14 0 01-1.3 0l-7.35-5.15v2.1l6.35 4.45a2.88 2.88 0 003.3 0z" fill="#0f7d92" fill-rule="evenodd"/></g></svg>