<svg xmlns="http://www.w3.org/2000/svg" width="1170.018" height="712.3"><defs><clipPath id="a"><path fill="none" d="M0 0h82v199H0z"/></clipPath></defs><g data-name="Сгруппировать 2125" transform="translate(-39.991 -1018)"><g data-name="Повторяющаяся сетка 11" transform="rotate(-90 1062.5 561.5)" opacity=".2" clip-path="url(#a)" fill="#176ce2"><circle data-name="Эллипс 31" cx="3" cy="3" r="3"/><circle data-name="Эллипс 31" cx="3" cy="3" r="3" transform="translate(24)"/><circle data-name="Эллипс 31" cx="3" cy="3" r="3" transform="translate(48)"/><circle data-name="Эллипс 31" cx="3" cy="3" r="3" transform="translate(72)"/><circle data-name="Эллипс 31" cx="3" cy="3" r="3" transform="translate(0 24)"/><circle data-name="Эллипс 31" cx="3" cy="3" r="3" transform="translate(24 24)"/><circle data-name="Эллипс 31" cx="3" cy="3" r="3" transform="translate(48 24)"/><circle data-name="Эллипс 31" cx="3" cy="3" r="3" transform="translate(72 24)"/><circle data-name="Эллипс 31" cx="3" cy="3" r="3" transform="translate(0 48)"/><circle data-name="Эллипс 31" cx="3" cy="3" r="3" transform="translate(24 48)"/><circle data-name="Эллипс 31" cx="3" cy="3" r="3" transform="translate(48 48)"/><circle data-name="Эллипс 31" cx="3" cy="3" r="3" transform="translate(72 48)"/><circle data-name="Эллипс 31" cx="3" cy="3" r="3" transform="translate(0 72)"/><circle data-name="Эллипс 31" cx="3" cy="3" r="3" transform="translate(24 72)"/><circle data-name="Эллипс 31" cx="3" cy="3" r="3" transform="translate(48 72)"/><circle data-name="Эллипс 31" cx="3" cy="3" r="3" transform="translate(72 72)"/><circle data-name="Эллипс 31" cx="3" cy="3" r="3" transform="translate(0 96)"/><circle data-name="Эллипс 31" cx="3" cy="3" r="3" transform="translate(24 96)"/><circle data-name="Эллипс 31" cx="3" cy="3" r="3" transform="translate(48 96)"/><circle data-name="Эллипс 31" cx="3" cy="3" r="3" transform="translate(72 96)"/><circle data-name="Эллипс 31" cx="3" cy="3" r="3" transform="translate(0 120)"/><circle data-name="Эллипс 31" cx="3" cy="3" r="3" transform="translate(24 120)"/><circle data-name="Эллипс 31" cx="3" cy="3" r="3" transform="translate(48 120)"/><circle data-name="Эллипс 31" cx="3" cy="3" r="3" transform="translate(72 120)"/><circle data-name="Эллипс 31" cx="3" cy="3" r="3" transform="translate(0 144)"/><circle data-name="Эллипс 31" cx="3" cy="3" r="3" transform="translate(24 144)"/><circle data-name="Эллипс 31" cx="3" cy="3" r="3" transform="translate(48 144)"/><circle data-name="Эллипс 31" cx="3" cy="3" r="3" transform="translate(72 144)"/><circle data-name="Эллипс 31" cx="3" cy="3" r="3" transform="translate(0 168)"/><circle data-name="Эллипс 31" cx="3" cy="3" r="3" transform="translate(24 168)"/><circle data-name="Эллипс 31" cx="3" cy="3" r="3" transform="translate(48 168)"/><circle data-name="Эллипс 31" cx="3" cy="3" r="3" transform="translate(72 168)"/><circle data-name="Эллипс 31" cx="3" cy="3" r="3" transform="translate(0 192)"/><circle data-name="Эллипс 31" cx="3" cy="3" r="3" transform="translate(24 192)"/><circle data-name="Эллипс 31" cx="3" cy="3" r="3" transform="translate(48 192)"/><circle data-name="Эллипс 31" cx="3" cy="3" r="3" transform="translate(72 192)"/></g><rect data-name="Прямоугольник 951" width="34.009" height="34.3" rx="15" transform="translate(710 1339)" fill="#176ce2" opacity=".2"/><rect data-name="Прямоугольник 955" width="100.009" height="100.3" rx="50" transform="translate(39.991 1610)" fill="#176ce2" opacity=".1"/><rect data-name="Прямоугольник 954" width="34.009" height="34.3" rx="15" transform="translate(1176 1686)" fill="#e6704a" opacity=".2"/><rect data-name="Прямоугольник 952" width="20.009" height="20.3" rx="10.004" transform="translate(645 1314)" fill="#0f7d92" opacity=".2"/><rect data-name="Прямоугольник 956" width="20.009" height="20.3" rx="10.004" transform="translate(256 1710)" fill="#0f7d92" opacity=".2"/><rect data-name="Прямоугольник 953" width="14.009" height="14.3" rx="7.004" transform="translate(631 1491)" fill="#176ce2" opacity=".2"/><rect data-name="Прямоугольник 950" width="24.009" height="24.3" rx="12.004" transform="translate(140 1018)" fill="#176ce2" opacity=".2"/></g></svg>