<svg xmlns="http://www.w3.org/2000/svg" width="339" height="293"><defs><filter id="b" x="0" y="0" width="293" height="293" filterUnits="userSpaceOnUse"><feOffset dy="3"/><feGaussianBlur stdDeviation="25" result="blur"/><feFlood flood-color="#176ce2" flood-opacity=".102"/><feComposite operator="in" in2="blur"/><feComposite in="SourceGraphic"/></filter><filter id="c" x="0" y="0" width="293" height="293" filterUnits="userSpaceOnUse"><feOffset dy="3"/><feGaussianBlur stdDeviation="25" result="blur-2"/><feFlood flood-color="#176ce2" flood-opacity=".102"/><feComposite operator="in" in2="blur-2"/><feComposite in="SourceGraphic"/></filter><clipPath id="a"><path fill="none" d="M0 0h82v199H0z"/></clipPath></defs><g data-name="Сгруппировать 2173"><path data-name="Контур 840" d="M337.213 72.631c-5.662-20.906-40.941-14.373-40.941-14.373s-23.955 36.586-30.924 37.457 14.374-35.278 14.374-35.278c-13.5-1.307-47.91 15.245-47.91 15.245s2.178 42.683-4.791 41.812 0-37.892 0-37.892c-13.067 3.92-25.262 19.164-25.262 19.164-15.244 24.826 17.422 43.119 17.422 43.119s.435 14.809-8.711 31.8a50.394 50.394 0 00-4.162 8.467h3.561q.437-1.433.967-2.765a.02.02 0 01.007-.016l.016-.038c.244-.55.594-1.333 1.032-2.288 1.088-2.13 1.823-3.7 2.288-4.841a.03.03 0 000-.01c3.261-6.688 7.959-15.4 11.092-17.229a6.9 6.9 0 01-.763-1.634l.763 1.634c6.1 13.067 36.585 15.244 53.572 11.76s9.582-8.276.436-16.051-28.31-5.726-33.973-8.775 2.613-6.1 13.938-5.227 16.986 12.2 35.279 13.937 32.23-32.666 32.23-32.666c-12.631 3.92-35.279-3.049-36.15-7.4s32.666-3.92 37.892-5.227 14.373-11.76 8.711-32.666" fill="#0f7d92" opacity=".2"/><g data-name="Сгруппировать 2172"><g data-name="Повторяющаяся сетка 169" transform="rotate(-90 104 -10)" opacity=".2" clip-path="url(#a)" fill="#fff"><circle data-name="Эллипс 31" cx="3" cy="3" r="3"/><circle data-name="Эллипс 31" cx="3" cy="3" r="3" transform="translate(24)"/><circle data-name="Эллипс 31" cx="3" cy="3" r="3" transform="translate(48)"/><circle data-name="Эллипс 31" cx="3" cy="3" r="3" transform="translate(72)"/><circle data-name="Эллипс 31" cx="3" cy="3" r="3" transform="translate(0 24)"/><circle data-name="Эллипс 31" cx="3" cy="3" r="3" transform="translate(24 24)"/><circle data-name="Эллипс 31" cx="3" cy="3" r="3" transform="translate(48 24)"/><circle data-name="Эллипс 31" cx="3" cy="3" r="3" transform="translate(72 24)"/><circle data-name="Эллипс 31" cx="3" cy="3" r="3" transform="translate(0 48)"/><circle data-name="Эллипс 31" cx="3" cy="3" r="3" transform="translate(24 48)"/><circle data-name="Эллипс 31" cx="3" cy="3" r="3" transform="translate(48 48)"/><circle data-name="Эллипс 31" cx="3" cy="3" r="3" transform="translate(72 48)"/><circle data-name="Эллипс 31" cx="3" cy="3" r="3" transform="translate(0 72)"/><circle data-name="Эллипс 31" cx="3" cy="3" r="3" transform="translate(24 72)"/><circle data-name="Эллипс 31" cx="3" cy="3" r="3" transform="translate(48 72)"/><circle data-name="Эллипс 31" cx="3" cy="3" r="3" transform="translate(72 72)"/><circle data-name="Эллипс 31" cx="3" cy="3" r="3" transform="translate(0 96)"/><circle data-name="Эллипс 31" cx="3" cy="3" r="3" transform="translate(24 96)"/><circle data-name="Эллипс 31" cx="3" cy="3" r="3" transform="translate(48 96)"/><circle data-name="Эллипс 31" cx="3" cy="3" r="3" transform="translate(72 96)"/><circle data-name="Эллипс 31" cx="3" cy="3" r="3" transform="translate(0 120)"/><circle data-name="Эллипс 31" cx="3" cy="3" r="3" transform="translate(24 120)"/><circle data-name="Эллипс 31" cx="3" cy="3" r="3" transform="translate(48 120)"/><circle data-name="Эллипс 31" cx="3" cy="3" r="3" transform="translate(72 120)"/><circle data-name="Эллипс 31" cx="3" cy="3" r="3" transform="translate(0 144)"/><circle data-name="Эллипс 31" cx="3" cy="3" r="3" transform="translate(24 144)"/><circle data-name="Эллипс 31" cx="3" cy="3" r="3" transform="translate(48 144)"/><circle data-name="Эллипс 31" cx="3" cy="3" r="3" transform="translate(72 144)"/><circle data-name="Эллипс 31" cx="3" cy="3" r="3" transform="translate(0 168)"/><circle data-name="Эллипс 31" cx="3" cy="3" r="3" transform="translate(24 168)"/><circle data-name="Эллипс 31" cx="3" cy="3" r="3" transform="translate(48 168)"/><circle data-name="Эллипс 31" cx="3" cy="3" r="3" transform="translate(72 168)"/><circle data-name="Эллипс 31" cx="3" cy="3" r="3" transform="translate(0 192)"/><circle data-name="Эллипс 31" cx="3" cy="3" r="3" transform="translate(24 192)"/><circle data-name="Эллипс 31" cx="3" cy="3" r="3" transform="translate(48 192)"/><circle data-name="Эллипс 31" cx="3" cy="3" r="3" transform="translate(72 192)"/></g><g data-name="Сгруппировать 2077" transform="translate(-1109 -40)"><g transform="translate(1109 40)" filter="url(#b)"><rect data-name="Прямоугольник 1590" width="143" height="143" rx="50" transform="translate(75 72)" fill="#0d1b39"/></g><g transform="translate(1109 40)" filter="url(#c)"><rect data-name="Прямоугольник 937" width="143" height="143" rx="50" transform="translate(75 72)" fill="#0f7d92" opacity=".2"/></g><rect data-name="Прямоугольник 941" width="58.009" height="58.3" rx="15" transform="translate(1226 154)" fill="#0f7d92" opacity=".3"/><path data-name="Icon color" d="M1266.902 191.63l-10.092-17.26a.76.76 0 00-.65-.37h-.3a.76.76 0 00-.65.37l-10.113 17.26a.79.79 0 000 .76l.14.23a.73.73 0 00.65.38h20.225a.73.73 0 00.65-.38l.14-.23a.79.79 0 000-.76zm-9.905-3.13a.5.5 0 01-.5.5h-1a.5.5 0 01-.5-.5v-1a.5.5 0 01.5-.5h1a.5.5 0 01.5.5zm-.47-3.5a.25.25 0 00.25-.22l.4-3.22a.5.5 0 00-.5-.56h-1.36a.5.5 0 00-.5.56l.4 3.22a.25.25 0 00.25.22z" fill="#0f7d92" fill-rule="evenodd"/></g></g></g></svg>