<svg xmlns="http://www.w3.org/2000/svg" width="310" height="310"><defs><filter id="a" x="0" y="0" width="310" height="310" filterUnits="userSpaceOnUse"><feOffset dy="3"/><feGaussianBlur stdDeviation="25" result="blur"/><feFlood flood-color="#e6704a" flood-opacity=".102"/><feComposite operator="in" in2="blur"/><feComposite in="SourceGraphic"/></filter></defs><g data-name="Сгруппировать 2113" transform="translate(-77 -5238)"><rect data-name="Прямоугольник 1104" width="100" height="100.503" rx="30" transform="translate(182 5340)" fill="#363b4d"/><g data-name="Сгруппировать 2112"><g data-name="Сгруппировать 2111"><g data-name="Сгруппировать 2110"><g data-name="Сгруппировать 2109"><g transform="translate(77 5238)" filter="url(#a)" data-name="Сгруппировать 2107"><rect data-name="Прямоугольник 833" width="160" height="160" rx="50" transform="translate(75 72)" fill="#e6704a" opacity=".2"/></g></g><rect data-name="Прямоугольник 834" width="100" height="100.503" rx="30" transform="translate(182 5340)" fill="#e6704a" opacity=".3"/></g><path data-name="Icon color" d="M224 5382h16a2 2 0 012 2v12a2 2 0 01-2 2h-16a2 2 0 01-2-2v-12a2 2 0 012-2zm9.65 11.45L240 5389v-2.1l-7.35 5.15a1.14 1.14 0 01-1.3 0l-7.35-5.15v2.1l6.35 4.45a2.88 2.88 0 003.3 0z" fill="#e6704a" fill-rule="evenodd"/></g></g></g></svg>