<svg xmlns="http://www.w3.org/2000/svg" width="58" height="58"><g transform="translate(-1013 -2114)" fill="#e6704a"><rect data-name="Rectangle 830" width="58" height="58" rx="15" transform="translate(1013 2114)" opacity=".3"/><path data-name="Icon color" d="M1049.5 2149h-15a.5.5 0 01-.5-.5v-2a.5.5 0 01.5-.5h1.5v-7h-1.5a.5.5 0 01-.5-.5v-1.83a1 1 0 01.62-.92l6.4-2.6a2 2 0 01.76-.15h.44a2 2 0 01.78.15l6.38 2.6a1 1 0 01.62.92v1.83a.5.5 0 01-.5.5h-1.5v7h1.5a.5.5 0 01.5.5v2a.5.5 0 01-.5.5zm-3.5-10h-3v7h3zm-8 0h3v7h-3zm-4.5 12h17a.5.5 0 01.5.5v1a.5.5 0 01-.5.5h-17a.5.5 0 01-.5-.5v-1a.5.5 0 01.5-.5z" fill-rule="evenodd"/></g></svg>