<svg xmlns="http://www.w3.org/2000/svg" width="58" height="58" viewBox="0 0 58 58">
  <g id="_48h" data-name="48h" transform="translate(-1013 -1975)">
    <rect id="Rectangle_830" data-name="Rectangle 830" width="58" height="58" rx="15" transform="translate(1013 1975)" fill="#176ce2" opacity="0.3"/>
    <path id="Path_789" data-name="Path 789" d="M.479-3.418,5.6-10.254H7.588v6.535H8.969v1.777H7.588V0H5.633V-1.941H.479Zm2.256-.3h2.9v-.157q0-.971.021-1.921t.109-1.969Zm8.935-1.75a2.656,2.656,0,0,1-1.09-.926,2.43,2.43,0,0,1-.393-1.377,2.455,2.455,0,0,1,.41-1.412,2.689,2.689,0,0,1,1.152-.94,4.176,4.176,0,0,1,1.733-.335,4.135,4.135,0,0,1,1.723.335,2.692,2.692,0,0,1,1.148.94,2.455,2.455,0,0,1,.41,1.412A2.435,2.435,0,0,1,16.369-6.4a2.656,2.656,0,0,1-1.083.93,2.969,2.969,0,0,1,1.336,1.049A2.775,2.775,0,0,1,17.1-2.8a2.753,2.753,0,0,1-.455,1.572A3,3,0,0,1,15.381-.171a4.489,4.489,0,0,1-1.9.376,4.489,4.489,0,0,1-1.9-.376,3,3,0,0,1-1.268-1.053A2.753,2.753,0,0,1,9.857-2.8a2.775,2.775,0,0,1,.482-1.624A2.974,2.974,0,0,1,11.669-5.469Zm.513-2.119a1.169,1.169,0,0,0,.359.892,1.314,1.314,0,0,0,.94.338,1.3,1.3,0,0,0,.933-.338,1.169,1.169,0,0,0,.359-.892,1.166,1.166,0,0,0-.359-.9,1.313,1.313,0,0,0-.933-.335,1.322,1.322,0,0,0-.94.335A1.166,1.166,0,0,0,12.182-7.588Zm1.3,5.947a1.723,1.723,0,0,0,1.186-.4,1.322,1.322,0,0,0,.448-1.039,1.319,1.319,0,0,0-.448-1.042,1.733,1.733,0,0,0-1.186-.393,1.733,1.733,0,0,0-1.186.393,1.319,1.319,0,0,0-.448,1.042,1.322,1.322,0,0,0,.448,1.039A1.723,1.723,0,0,0,13.48-1.641ZM21.82,0V-10.254h1.969v4.081a2.771,2.771,0,0,1,2.023-.8q2.639,0,2.639,3.322V0H26.482V-3.664a1.885,1.885,0,0,0-.325-1.186,1.109,1.109,0,0,0-.926-.414,1.332,1.332,0,0,0-1.042.448,1.674,1.674,0,0,0-.4,1.159V0Z" transform="translate(1027.521 2009.459)" fill="#176ce2"/>
  </g>
</svg>
