<svg xmlns="http://www.w3.org/2000/svg" width="15.97" height="6.654" viewBox="0 0 15.97 6.654">
  <path id="Контур_450" data-name="Контур 450" d="M76.829,25.085l3.549-3.076a.275.275,0,0,0,.092-.208.266.266,0,0,0-.092-.2L76.829,18.57a.313.313,0,0,0-.324-.043.251.251,0,0,0-.176.251v1.941H64.8a.3.3,0,0,0-.213.078.261.261,0,0,0-.083.2v1.663a.26.26,0,0,0,.083.2.3.3,0,0,0,.213.078H76.33v1.941a.261.261,0,0,0,.176.251A.313.313,0,0,0,76.829,25.085Z" transform="translate(-64.5 -18.5)" fill="#176ce2"/>
</svg>
