<svg xmlns="http://www.w3.org/2000/svg" width="34.717" height="34.891" viewBox="0 0 34.717 34.891">
  <g id="Сгруппировать_2094" data-name="Сгруппировать 2094" transform="translate(-23444.336 -10561)">
    <path id="Контур_783" data-name="Контур 783" d="M11,0H23.716a11,11,0,0,1,11,11V23.89a11,11,0,0,1-11,11H11a11,11,0,0,1-11-11V11A11,11,0,0,1,11,0Z" transform="translate(23444.336 10561)" fill="#fff" opacity="0.3"/>
    <path id="Icon_color" data-name="Icon color" d="M1.358,0H12.223a1.358,1.358,0,0,1,1.358,1.358V9.507a1.358,1.358,0,0,1-1.358,1.358H1.358A1.358,1.358,0,0,1,0,9.507V1.358A1.358,1.358,0,0,1,1.358,0ZM7.911,7.775l4.312-3.022V3.327l-4.991,3.5a.774.774,0,0,1-.883,0l-4.991-3.5V4.753L5.67,7.775A1.956,1.956,0,0,0,7.911,7.775Z" transform="translate(23454.898 10573)" fill="#fff" fill-rule="evenodd"/>
  </g>
</svg>
