<svg xmlns="http://www.w3.org/2000/svg" xmlns:xlink="http://www.w3.org/1999/xlink" width="199" height="82" viewBox="0 0 199 82">
  <defs>
    <clipPath id="clip-path">
      <rect width="82" height="199" fill="none"/>
    </clipPath>
  </defs>
  <g id="Повторяющаяся_сетка_15" data-name="Повторяющаяся сетка 15" transform="translate(0 82) rotate(-90)" opacity="0.2" clip-path="url(#clip-path)">
    <g transform="translate(-163 -647)">
      <circle id="Эллипс_31" data-name="Эллипс 31" cx="3" cy="3" r="3" transform="translate(163 647)" fill="#fff"/>
    </g>
    <g transform="translate(-139 -647)">
      <circle id="Эллипс_31-2" data-name="Эллипс 31" cx="3" cy="3" r="3" transform="translate(163 647)" fill="#fff"/>
    </g>
    <g transform="translate(-115 -647)">
      <circle id="Эллипс_31-3" data-name="Эллипс 31" cx="3" cy="3" r="3" transform="translate(163 647)" fill="#fff"/>
    </g>
    <g transform="translate(-91 -647)">
      <circle id="Эллипс_31-4" data-name="Эллипс 31" cx="3" cy="3" r="3" transform="translate(163 647)" fill="#fff"/>
    </g>
    <g transform="translate(-163 -623)">
      <circle id="Эллипс_31-5" data-name="Эллипс 31" cx="3" cy="3" r="3" transform="translate(163 647)" fill="#fff"/>
    </g>
    <g transform="translate(-139 -623)">
      <circle id="Эллипс_31-6" data-name="Эллипс 31" cx="3" cy="3" r="3" transform="translate(163 647)" fill="#fff"/>
    </g>
    <g transform="translate(-115 -623)">
      <circle id="Эллипс_31-7" data-name="Эллипс 31" cx="3" cy="3" r="3" transform="translate(163 647)" fill="#fff"/>
    </g>
    <g transform="translate(-91 -623)">
      <circle id="Эллипс_31-8" data-name="Эллипс 31" cx="3" cy="3" r="3" transform="translate(163 647)" fill="#fff"/>
    </g>
    <g transform="translate(-163 -599)">
      <circle id="Эллипс_31-9" data-name="Эллипс 31" cx="3" cy="3" r="3" transform="translate(163 647)" fill="#fff"/>
    </g>
    <g transform="translate(-139 -599)">
      <circle id="Эллипс_31-10" data-name="Эллипс 31" cx="3" cy="3" r="3" transform="translate(163 647)" fill="#fff"/>
    </g>
    <g transform="translate(-115 -599)">
      <circle id="Эллипс_31-11" data-name="Эллипс 31" cx="3" cy="3" r="3" transform="translate(163 647)" fill="#fff"/>
    </g>
    <g transform="translate(-91 -599)">
      <circle id="Эллипс_31-12" data-name="Эллипс 31" cx="3" cy="3" r="3" transform="translate(163 647)" fill="#fff"/>
    </g>
    <g transform="translate(-163 -575)">
      <circle id="Эллипс_31-13" data-name="Эллипс 31" cx="3" cy="3" r="3" transform="translate(163 647)" fill="#fff"/>
    </g>
    <g transform="translate(-139 -575)">
      <circle id="Эллипс_31-14" data-name="Эллипс 31" cx="3" cy="3" r="3" transform="translate(163 647)" fill="#fff"/>
    </g>
    <g transform="translate(-115 -575)">
      <circle id="Эллипс_31-15" data-name="Эллипс 31" cx="3" cy="3" r="3" transform="translate(163 647)" fill="#fff"/>
    </g>
    <g transform="translate(-91 -575)">
      <circle id="Эллипс_31-16" data-name="Эллипс 31" cx="3" cy="3" r="3" transform="translate(163 647)" fill="#fff"/>
    </g>
    <g transform="translate(-163 -551)">
      <circle id="Эллипс_31-17" data-name="Эллипс 31" cx="3" cy="3" r="3" transform="translate(163 647)" fill="#fff"/>
    </g>
    <g transform="translate(-139 -551)">
      <circle id="Эллипс_31-18" data-name="Эллипс 31" cx="3" cy="3" r="3" transform="translate(163 647)" fill="#fff"/>
    </g>
    <g transform="translate(-115 -551)">
      <circle id="Эллипс_31-19" data-name="Эллипс 31" cx="3" cy="3" r="3" transform="translate(163 647)" fill="#fff"/>
    </g>
    <g transform="translate(-91 -551)">
      <circle id="Эллипс_31-20" data-name="Эллипс 31" cx="3" cy="3" r="3" transform="translate(163 647)" fill="#fff"/>
    </g>
    <g transform="translate(-163 -527)">
      <circle id="Эллипс_31-21" data-name="Эллипс 31" cx="3" cy="3" r="3" transform="translate(163 647)" fill="#fff"/>
    </g>
    <g transform="translate(-139 -527)">
      <circle id="Эллипс_31-22" data-name="Эллипс 31" cx="3" cy="3" r="3" transform="translate(163 647)" fill="#fff"/>
    </g>
    <g transform="translate(-115 -527)">
      <circle id="Эллипс_31-23" data-name="Эллипс 31" cx="3" cy="3" r="3" transform="translate(163 647)" fill="#fff"/>
    </g>
    <g transform="translate(-91 -527)">
      <circle id="Эллипс_31-24" data-name="Эллипс 31" cx="3" cy="3" r="3" transform="translate(163 647)" fill="#fff"/>
    </g>
    <g transform="translate(-163 -503)">
      <circle id="Эллипс_31-25" data-name="Эллипс 31" cx="3" cy="3" r="3" transform="translate(163 647)" fill="#fff"/>
    </g>
    <g transform="translate(-139 -503)">
      <circle id="Эллипс_31-26" data-name="Эллипс 31" cx="3" cy="3" r="3" transform="translate(163 647)" fill="#fff"/>
    </g>
    <g transform="translate(-115 -503)">
      <circle id="Эллипс_31-27" data-name="Эллипс 31" cx="3" cy="3" r="3" transform="translate(163 647)" fill="#fff"/>
    </g>
    <g transform="translate(-91 -503)">
      <circle id="Эллипс_31-28" data-name="Эллипс 31" cx="3" cy="3" r="3" transform="translate(163 647)" fill="#fff"/>
    </g>
    <g transform="translate(-163 -479)">
      <circle id="Эллипс_31-29" data-name="Эллипс 31" cx="3" cy="3" r="3" transform="translate(163 647)" fill="#fff"/>
    </g>
    <g transform="translate(-139 -479)">
      <circle id="Эллипс_31-30" data-name="Эллипс 31" cx="3" cy="3" r="3" transform="translate(163 647)" fill="#fff"/>
    </g>
    <g transform="translate(-115 -479)">
      <circle id="Эллипс_31-31" data-name="Эллипс 31" cx="3" cy="3" r="3" transform="translate(163 647)" fill="#fff"/>
    </g>
    <g transform="translate(-91 -479)">
      <circle id="Эллипс_31-32" data-name="Эллипс 31" cx="3" cy="3" r="3" transform="translate(163 647)" fill="#fff"/>
    </g>
    <g transform="translate(-163 -455)">
      <circle id="Эллипс_31-33" data-name="Эллипс 31" cx="3" cy="3" r="3" transform="translate(163 647)" fill="#fff"/>
    </g>
    <g transform="translate(-139 -455)">
      <circle id="Эллипс_31-34" data-name="Эллипс 31" cx="3" cy="3" r="3" transform="translate(163 647)" fill="#fff"/>
    </g>
    <g transform="translate(-115 -455)">
      <circle id="Эллипс_31-35" data-name="Эллипс 31" cx="3" cy="3" r="3" transform="translate(163 647)" fill="#fff"/>
    </g>
    <g transform="translate(-91 -455)">
      <circle id="Эллипс_31-36" data-name="Эллипс 31" cx="3" cy="3" r="3" transform="translate(163 647)" fill="#fff"/>
    </g>
  </g>
</svg>
