<svg xmlns="http://www.w3.org/2000/svg" width="58" height="58" viewBox="0 0 58 58">
  <g id="like" transform="translate(-621 -682)">
    <rect id="Rectangle_938" data-name="Rectangle 938" width="58" height="58" rx="15" transform="translate(621 682)" fill="rgba(23,108,226,0.1)"/>
    <path id="Icon_color" data-name="Icon color" d="M13,7h5a2,2,0,0,1,2,2v2.84a6.059,6.059,0,0,1-.43,2.23L18.5,16.74A2,2,0,0,1,16.65,18H10.41A3.41,3.41,0,0,1,8,17a3.41,3.41,0,0,0-2.41-.95H5v-8h.89a2,2,0,0,0,1.7-.94l1.22-2a4.06,4.06,0,0,1,1.9-1.6l.43-.17a2,2,0,0,0,1.15-1.22l.6-1.78A.5.5,0,0,1,13.36,0h.14A1.5,1.5,0,0,1,15,1.5v.39a4.15,4.15,0,0,1-.45,2ZM2.5,17a.5.5,0,0,0,.5-.5v-9A.5.5,0,0,0,2.5,7H.5a.5.5,0,0,0-.5.5v9a.5.5,0,0,0,.5.5Z" transform="translate(640 702)" fill="#176ce2" fill-rule="evenodd"/>
  </g>
</svg>
