<svg xmlns="http://www.w3.org/2000/svg" width="55" height="55" viewBox="0 0 55 55">
  <g id="Mail" transform="translate(-39.74 -40)">
    <rect id="Rectangle_941" data-name="Rectangle 941" width="55" height="55" rx="15" transform="translate(39.74 40)" fill="#0f7d92" opacity="0.3"/>
    <path id="Icon_color" data-name="Icon color" d="M1.9,0H17.086a1.9,1.9,0,0,1,1.9,1.9V13.289a1.9,1.9,0,0,1-1.9,1.9H1.9a1.9,1.9,0,0,1-1.9-1.9V1.9A1.9,1.9,0,0,1,1.9,0Zm9.16,10.869,6.028-4.224V4.651L10.109,9.54a1.082,1.082,0,0,1-1.234,0L1.9,4.651V6.645l6.028,4.224A2.734,2.734,0,0,0,11.059,10.869Z" transform="translate(57.74 60)" fill="#0f7d92" fill-rule="evenodd"/>
  </g>
</svg>
