<svg id="_001-phone-call" data-name="001-phone-call" xmlns="http://www.w3.org/2000/svg" width="21.455" height="21.5" viewBox="0 0 21.455 21.5">
  <g id="Сгруппировать_1521" data-name="Сгруппировать 1521" transform="translate(0 0)">
    <path id="Контур_454" data-name="Контур 454" d="M1.1,15.779l3-3a2,2,0,0,1,3.322.75,2.042,2.042,0,0,0,2.357,1.286,9.252,9.252,0,0,0,5.572-5.572,1.942,1.942,0,0,0-1.286-2.357,2,2,0,0,1-.75-3.322l3-3a2.14,2.14,0,0,1,2.893,0L21.247,2.6c2.036,2.143-.214,7.823-5.251,12.859S5.281,22.852,3.138,20.708L1.1,18.672A2.14,2.14,0,0,1,1.1,15.779Z" transform="translate(-0.539 0)" fill="#176ce2"/>
  </g>
</svg>
