<svg xmlns="http://www.w3.org/2000/svg" width="58" height="58" viewBox="0 0 58 58">
  <g id="price" transform="translate(-743 -2114)">
    <rect id="Rectangle_830" data-name="Rectangle 830" width="58" height="58" rx="15" transform="translate(743 2114)" fill="#176ce2" opacity="0.3"/>
    <path id="Icon_color" data-name="Icon color" d="M2,0H18a2,2,0,0,1,2,2V14a2,2,0,0,1-2,2H2a2,2,0,0,1-2-2V2A2,2,0,0,1,2,0ZM18,5V2H2V5ZM2,14V8H18v6Zm2.5-4h3a.5.5,0,0,1,.5.5v1a.5.5,0,0,1-.5.5h-3a.5.5,0,0,1-.5-.5v-1A.5.5,0,0,1,4.5,10Z" transform="translate(762 2135)" fill="#176ce2" fill-rule="evenodd"/>
  </g>
</svg>
