<svg xmlns="http://www.w3.org/2000/svg" width="58" height="58" viewBox="0 0 58 58">
  <g id="terms" transform="translate(-743 -2252)">
    <rect id="Rectangle_830" data-name="Rectangle 830" width="58" height="58" rx="15" transform="translate(743 2252)" fill="#0f7d92" opacity="0.3"/>
    <path id="Icon_color" data-name="Icon color" d="M2,0H14a2,2,0,0,1,2,2V12.76a3,3,0,0,1-.88,2.12l-4.24,4.24A3,3,0,0,1,8.76,20H2a2,2,0,0,1-2-2V2A2,2,0,0,1,2,0ZM14,2H2V18H8V13a1,1,0,0,1,1-1h5Z" transform="translate(764 2271)" fill="#0f7d92" fill-rule="evenodd"/>
  </g>
</svg>
