<svg xmlns="http://www.w3.org/2000/svg" width="1011.105" height="801.991"><defs><filter id="a" x="665.105" y="0" width="346" height="346" filterUnits="userSpaceOnUse"><feOffset dy="3"/><feGaussianBlur stdDeviation="25" result="blur"/><feFlood flood-color="#176ce2" flood-opacity=".102"/><feComposite operator="in" in2="blur"/><feComposite in="SourceGraphic"/></filter></defs><g data-name="Сгруппировать 2130"><path data-name="Контур 583" d="M972.301 366.263c-14.488-53.491-104.758-36.775-104.758-36.775s-61.291 93.609-79.122 95.838 36.775-90.266 36.775-90.266c-34.546-3.343-122.583 39-122.583 39s5.572 109.211-12.258 106.982 0-96.953 0-96.953c-33.431 10.03-64.635 49.033-64.635 49.033-39 63.521 44.576 110.325 44.576 110.325s1.114 37.889-22.288 81.35a128.975 128.975 0 00-10.65 21.664h9.115q1.116-3.666 2.473-7.074a.053.053 0 01.017-.041l.04-.1a500.432 500.432 0 012.64-5.854v-.009c0-.006.006-.006.006-.012 2.784-5.451 4.665-9.478 5.855-12.385a.1.1 0 00.009-.027c8.344-17.111 20.364-39.406 28.38-44.083a17.652 17.652 0 01-1.951-4.18l1.951 4.18c15.6 33.432 93.609 39 137.07 30.089s24.517-21.174 1.114-41.069-72.436-14.651-86.922-22.451 6.686-15.6 35.66-13.373 43.462 31.2 90.266 35.661 82.465-83.58 82.465-83.58c-32.318 10.03-90.266-7.8-92.495-18.944s83.58-10.03 96.953-13.373 36.775-30.089 22.288-83.58" fill="#0f7d92" opacity=".2"/><path data-name="Контур 584" d="M957.496 615.687c-7.761-28.657-56.119-19.7-56.119-19.7s-32.836 50.15-42.388 51.344 19.7-48.359 19.7-48.359c-18.508-1.791-65.672 20.9-65.672 20.9s2.985 58.507-6.567 57.313 0-51.94 0-51.94c-17.911 5.373-34.627 26.269-34.627 26.269-20.9 34.03 23.881 59.1 23.881 59.1s.6 20.3-11.94 43.583a69.08 69.08 0 00-5.705 11.606h4.883q.6-1.964 1.326-3.79a.027.027 0 01.009-.022l.022-.052c.334-.755.815-1.828 1.414-3.136v-.012c1.492-2.92 2.5-5.078 3.137-6.635a.041.041 0 00.005-.014c4.47-9.167 10.909-21.111 15.2-23.617a9.46 9.46 0 01-1.046-2.24l1.046 2.24c8.358 17.911 50.149 20.9 73.433 16.12s13.135-11.344.6-22-38.806-7.849-46.568-12.028 3.582-8.358 19.105-7.164 23.283 16.717 48.358 19.1 44.18-44.776 44.18-44.776c-17.314 5.373-48.359-4.179-49.552-10.149s44.776-5.373 51.94-7.164 19.7-16.12 11.94-44.776" fill="#0f7d92" opacity=".1"/><path data-name="Контур 585" d="M20.804 594.591c-29.816 23.56 5.069 75.958 5.069 75.958s75.544 13.394 81.754 24.033-66.82 1.162-66.82 1.162c7.21 22.68 57.651 66.762 57.651 66.762s67.347-32.967 70.751-21.126-61.122 26.148-61.122 26.148c15.34 18.372 48.344 27.525 48.344 27.525 50.566 7.456 57.531-57.857 57.531-57.857s23.587-10.922 57.298-7.89a88.465 88.465 0 0016.53.867l-2.459-5.746c-1.74.19-3.452.31-5.125.348a.035.035 0 01-.03-.001c-.025-.001-.049-.003-.073.001a278.01 278.01 0 01-4.402-.085h-.007l-.009-.001c-4.19-.286-7.233-.385-9.386-.351a.08.08 0 00-.02-.001c-13.038-.645-30.335-2.21-35.445-6.002a12.117 12.117 0 01-2.11 2.356l2.11-2.356c16.868-18.853-.662-69.53-18-94.53s-19.96-9.746-26.192 10.374 10.3 49.617 9.29 60.854-11.64-.01-18.049-18.875 7.95-35.815-1.863-66.525-74.932-29.447-74.932-29.447c15.039 17.67 19.428 59.01 12.999 63.421s-28.865-49.987-34.58-57.515-28.885-15.06-58.703 8.499" fill="#0f7d92" opacity=".2"/><g data-name="Сгруппировать 1565" transform="translate(740.552 72.01)"><g transform="translate(-740.55 -72.01)" filter="url(#a)"><rect data-name="Прямоугольник 937" width="196" height="196" rx="50" transform="translate(740.11 72)" fill="#0f7d92" opacity=".2"/></g><rect data-name="Прямоугольник 941" width="79.515" height="79.914" rx="15" transform="translate(57.571 57.571)" fill="#0f7d92" opacity=".3"/><path data-name="Icon color" d="M87.727 86.357h21.932a2.741 2.741 0 012.741 2.741v16.449a2.741 2.741 0 01-2.741 2.741H87.727a2.741 2.741 0 01-2.741-2.741V89.098a2.741 2.741 0 012.741-2.741zm13.228 15.695l8.7-6.1v-2.878l-10.069 7.059a1.563 1.563 0 01-1.782 0l-10.077-7.059v2.883l8.7 6.1a3.948 3.948 0 004.528-.005z" fill="#0f7d92" fill-rule="evenodd"/></g></g></svg>