<svg xmlns="http://www.w3.org/2000/svg" width="263.74" height="233.051"><path data-name="Контур 583" d="M260.405 28.633c-10.569-39.024-76.421-26.829-76.421-26.829s-44.714 68.291-57.722 69.917S153.09 5.869 153.09 5.869c-25.2-2.439-89.429 28.455-89.429 28.455s4.065 79.673-8.943 78.047 0-70.73 0-70.73C30.329 48.958 7.565 77.413 7.565 77.413c-28.453 46.34 32.525 80.486 32.525 80.486s.813 27.641-16.26 59.348a94.092 94.092 0 00-7.77 15.8h6.65q.814-2.675 1.8-5.161a.039.039 0 01.013-.03l.029-.072c.456-1.028 1.11-2.49 1.926-4.27v-.015c2.031-3.977 3.4-6.914 4.271-9.035a.073.073 0 00.007-.02c6.087-12.483 14.856-28.748 20.7-32.16a12.877 12.877 0 01-1.423-3.05l1.423 3.05c11.382 24.39 68.291 28.455 100 21.951s17.886-15.447.813-29.961-52.844-10.688-63.413-16.379 4.878-11.382 26.015-9.756 31.707 22.764 65.852 26.016 60.167-60.968 60.167-60.968c-23.577 7.317-65.852-5.691-67.478-13.82s60.974-7.317 70.73-9.756 26.828-21.951 16.26-60.974" fill="#0f7d92" opacity=".2"/></svg>