<svg xmlns="http://www.w3.org/2000/svg" width="1788.826" height="1084.019"><defs><radialGradient id="a" cx=".5" cy=".5" r=".5" gradientUnits="objectBoundingBox"><stop offset="0" stop-color="#176ce2" stop-opacity="0"/><stop offset="1" stop-color="#176ce2"/></radialGradient></defs><g data-name="Сгруппировать 2124" transform="translate(-97.951 -154.019)"><rect data-name="Прямоугольник 942" width="46.617" height="46.851" rx="15" transform="translate(1149.309 1060.078)" fill="#176ce2" opacity=".1"/><rect data-name="Прямоугольник 947" width="46.617" height="46.851" rx="15" transform="translate(191.162 186.917)" fill="#0f7d92" opacity=".2"/><rect data-name="Прямоугольник 944" width="46.617" height="46.851" rx="15" transform="translate(1840.16 313.025)" fill="#e6704a" opacity=".2"/><rect data-name="Прямоугольник 945" width="27.427" height="27.565" rx="13.713" transform="translate(1343.953 180.063)" fill="#0f7d92" opacity=".2"/><rect data-name="Прямоугольник 949" width="27.427" height="27.565" rx="13.713" transform="translate(676.404 691.349)" fill="#e6704a" opacity=".1"/><rect data-name="Прямоугольник 946" width="19.202" height="19.299" rx="9.601" transform="translate(1017.717 154.019)" fill="#176ce2" opacity=".094"/><rect data-name="Прямоугольник 948" width="19.202" height="19.299" rx="9.601" transform="translate(506.432 214.332)" fill="#176ce2" opacity=".1"/><rect data-name="Прямоугольник 943" width="32.91" height="33.075" rx="15" transform="translate(97.951 848.984)" fill="#0f7d92" opacity=".2"/><path data-name="Контур 664" d="M81.558 0h.014a81.558 81.558 0 0181.558 81.558v.49a81.558 81.558 0 01-81.558 81.558h-.014A81.558 81.558 0 010 82.048v-.49A81.558 81.558 0 0181.558 0z" transform="translate(664.742 1074.433)" opacity=".1" fill="url(#a)"/></g></svg>