<svg xmlns="http://www.w3.org/2000/svg" xmlns:xlink="http://www.w3.org/1999/xlink" width="753.258" height="651.547" viewBox="0 0 753.258 651.547">
  <defs>
    <filter id="Прямоугольник_937" x="460.258" y="0" width="293" height="293" filterUnits="userSpaceOnUse">
      <feOffset dy="3" input="SourceAlpha"/>
      <feGaussianBlur stdDeviation="25" result="blur"/>
      <feFlood flood-color="#176ce2" flood-opacity="0.102"/>
      <feComposite operator="in" in2="blur"/>
      <feComposite in="SourceGraphic"/>
    </filter>
  </defs>
  <g id="Сгруппировать_2105" data-name="Сгруппировать 2105" transform="translate(-666.742 -8613)">
    <g id="Сгруппировать_1628" data-name="Сгруппировать 1628" transform="translate(18 8573)">
      <g transform="matrix(1, 0, 0, 1, 648.74, 40)" filter="url(#Прямоугольник_937)">
        <rect id="Прямоугольник_937-2" data-name="Прямоугольник 937" width="143" height="143" rx="50" transform="translate(535.26 72)" fill="#0f7d92" opacity="0.2"/>
      </g>
      <rect id="Прямоугольник_941" data-name="Прямоугольник 941" width="58.009" height="58.3" rx="15" transform="translate(1226 154)" fill="#0f7d92" opacity="0.3"/>
      <path id="Icon_color" data-name="Icon color" d="M2,0H18a2,2,0,0,1,2,2V14a2,2,0,0,1-2,2H2a2,2,0,0,1-2-2V2A2,2,0,0,1,2,0Zm9.65,11.45L18,7V4.9l-7.35,5.15a1.14,1.14,0,0,1-1.3,0L2,4.9V7l6.35,4.45A2.88,2.88,0,0,0,11.65,11.45Z" transform="translate(1246 175)" fill="#0f7d92" fill-rule="evenodd"/>
    </g>
    <path id="Контур_591" data-name="Контур 591" d="M697.315,136.946c-10.569-39.024-76.421-26.829-76.421-26.829s-44.714,68.291-57.722,69.917S590,114.182,590,114.182c-25.2-2.439-89.429,28.455-89.429,28.455s4.065,79.673-8.943,78.047,0-70.73,0-70.73c-24.389,7.317-47.153,35.772-47.153,35.772C416.022,232.066,477,266.212,477,266.212s.813,27.641-16.26,59.348h0a94.092,94.092,0,0,0-7.77,15.8h6.65q.814-2.675,1.8-5.161a.039.039,0,0,1,.013-.03l.029-.072c.456-1.028,1.11-2.49,1.926-4.27l0-.007s0,0,0-.008c2.031-3.977,3.4-6.914,4.271-9.035a.073.073,0,0,0,.007-.02c6.087-12.483,14.856-28.748,20.7-32.16a12.877,12.877,0,0,1-1.423-3.05l1.423,3.05c11.382,24.39,68.291,28.455,100,21.951s17.886-15.447.813-29.961-52.844-10.688-63.413-16.379,4.878-11.382,26.015-9.756,31.707,22.764,65.852,26.016S677.8,221.5,677.8,221.5c-23.577,7.317-65.852-5.691-67.478-13.82s60.974-7.317,70.73-9.756,26.828-21.951,16.26-60.974" transform="translate(675.753 8811.723)" fill="#0f7d92" opacity="0.2"/>
    <path id="Контур_590" data-name="Контур 590" d="M617.344,802.094c-5.662-20.906-40.941-14.373-40.941-14.373s-23.955,36.586-30.924,37.457S559.853,789.9,559.853,789.9c-13.5-1.307-47.91,15.245-47.91,15.245s2.178,42.683-4.791,41.812,0-37.892,0-37.892c-13.067,3.92-25.262,19.164-25.262,19.164-15.244,24.826,17.422,43.119,17.422,43.119s.435,14.809-8.711,31.8h0a50.393,50.393,0,0,0-4.162,8.467H490q.437-1.433.967-2.765a.02.02,0,0,1,.007-.016l.016-.038c.244-.55.594-1.333,1.032-2.288l0,0s0,0,0,0c1.088-2.13,1.823-3.7,2.288-4.841a.031.031,0,0,0,0-.01c3.261-6.688,7.959-15.4,11.092-17.229a6.9,6.9,0,0,1-.763-1.634l.763,1.634c6.1,13.067,36.585,15.244,53.572,11.76s9.582-8.276.436-16.051-28.31-5.726-33.973-8.775,2.613-6.1,13.938-5.227,16.986,12.2,35.279,13.937,32.23-32.666,32.23-32.666c-12.631,3.92-35.279-3.049-36.15-7.4s32.666-3.92,37.892-5.227,14.373-11.76,8.711-32.666" transform="translate(744.923 8349.537)" fill="#0f7d92" opacity="0.3"/>
    <path id="Контур_592" data-name="Контур 592" d="M141.048,7.809C122.745-13.013,85.9,14.4,85.9,14.4S79.029,69.95,71.516,74.883s-3.4-48.64-3.4-48.64c-16.248,6.118-46.437,44.55-46.437,44.55S48.27,118.6,39.773,121.53,18.39,78,18.39,78C5.591,89.876.183,114.271.183,114.271c-3.5,37.123,44.347,39.7,44.347,39.7s8.857,16.767,7.935,41.442h0a64.538,64.538,0,0,0,0,12.076l4.092-2.01c-.2-1.262-.357-2.5-.45-3.722a.025.025,0,0,1,0-.023c0-.018,0-.035,0-.053-.031-.77-.069-1.868-.106-3.211v-.005s0,0,0-.007c.048-3.061,0-5.284-.1-6.852a.059.059,0,0,0,0-.014c-.028-9.523.451-22.185,3.02-26.052a8.84,8.84,0,0,1-1.8-1.446l1.8,1.446c14.379,11.57,50.633-3.134,68.181-16.722s6.338-14.914-8.558-18.686-35.755,9.4-43.98,9.09-.439-8.48,13.062-13.869,26.4,4.424,48.394-3.9S154.6,65.745,154.6,65.745c-12.3,11.631-42.249,16.407-45.708,11.895S144.208,54.7,149.475,50.252s9.875-21.621-8.427-42.443" transform="translate(666.74 9253.688) rotate(-87)" fill="#0f7d92" opacity="0.055"/>
  </g>
</svg>
