<svg xmlns="http://www.w3.org/2000/svg" xmlns:xlink="http://www.w3.org/1999/xlink" width="430" height="271" viewBox="0 0 430 271">
  <defs>
    <filter id="Прямоугольник_936" x="0" y="0" width="430" height="271" filterUnits="userSpaceOnUse">
      <feOffset dy="3" input="SourceAlpha"/>
      <feGaussianBlur stdDeviation="25" result="blur"/>
      <feFlood flood-color="#176ce2" flood-opacity="0.102"/>
      <feComposite operator="in" in2="blur"/>
      <feComposite in="SourceGraphic"/>
    </filter>
  </defs>
  <g id="Сгруппировать_1563" data-name="Сгруппировать 1563" transform="translate(-515 -579)">
    <g transform="matrix(1, 0, 0, 1, 515, 579)" filter="url(#Прямоугольник_936)">
      <rect id="Прямоугольник_936-2" data-name="Прямоугольник 936" width="280" height="121" rx="50" transform="translate(75 72)" fill="#e6704a" opacity="0.2"/>
    </g>
    <rect id="Прямоугольник_938" data-name="Прямоугольник 938" width="58.009" height="58.3" rx="15" transform="translate(612 682)" fill="#e6704a" opacity="0.3"/>
    <rect id="Прямоугольник_939" data-name="Прямоугольник 939" width="147" height="16" rx="8" transform="translate(691 690)" fill="#0d1b39"/>
    <rect id="Прямоугольник_940" data-name="Прямоугольник 940" width="88" height="16" rx="8" transform="translate(691 716)" fill="#0d1b39"/>
    <path id="Icon_color" data-name="Icon color" d="M8,0a4,4,0,1,0,4,4A4,4,0,0,0,8,0Zm6.452,11.66,1.44,2.89a1,1,0,0,1-.89,1.45H1a1,1,0,0,1-.89-1.45L1.55,11.66A3,3,0,0,1,4.242,10h7.523A3,3,0,0,1,14.455,11.66Z" transform="translate(632.997 703)" fill="#e6704a" fill-rule="evenodd"/>
  </g>
</svg>
