<svg xmlns="http://www.w3.org/2000/svg" xmlns:xlink="http://www.w3.org/1999/xlink" width="1011.105" height="801.991" viewBox="0 0 1011.105 801.991">
  <defs>
    <filter id="Прямоугольник_937" x="665.105" y="0" width="346" height="346" filterUnits="userSpaceOnUse">
      <feOffset dy="3" input="SourceAlpha"/>
      <feGaussianBlur stdDeviation="25" result="blur"/>
      <feFlood flood-color="#176ce2" flood-opacity="0.102"/>
      <feComposite operator="in" in2="blur"/>
      <feComposite in="SourceGraphic"/>
    </filter>
  </defs>
  <g id="Сгруппировать_2130" data-name="Сгруппировать 2130" transform="translate(-926.895 -45)">
    <path id="Контур_583" data-name="Контур 583" d="M793.858,147.561C779.37,94.07,689.1,110.786,689.1,110.786s-61.291,93.609-79.122,95.838,36.775-90.266,36.775-90.266c-34.546-3.343-122.583,39-122.583,39s5.572,109.211-12.258,106.982,0-96.953,0-96.953c-33.431,10.03-64.635,49.033-64.635,49.033-39,63.521,44.576,110.325,44.576,110.325s1.114,37.889-22.288,81.35h0a128.975,128.975,0,0,0-10.65,21.664h9.115q1.116-3.666,2.473-7.074a.053.053,0,0,1,.017-.041c.013-.033.027-.065.04-.1.624-1.409,1.521-3.413,2.64-5.854l0-.009c0-.006.006-.006.006-.012,2.784-5.451,4.665-9.478,5.855-12.385a.1.1,0,0,0,.009-.027c8.344-17.111,20.364-39.406,28.38-44.083a17.652,17.652,0,0,1-1.951-4.18l1.951,4.18c15.6,33.432,93.609,39,137.07,30.089s24.517-21.174,1.114-41.069-72.436-14.651-86.922-22.451,6.686-15.6,35.66-13.373,43.462,31.2,90.266,35.661,82.465-83.58,82.465-83.58c-32.318,10.03-90.266-7.8-92.495-18.944s83.58-10.03,96.953-13.373,36.775-30.089,22.288-83.58" transform="translate(1105.338 263.702)" fill="#0f7d92" opacity="0.2"/>
    <path id="Контур_584" data-name="Контур 584" d="M669.065,807.781c-7.761-28.657-56.119-19.7-56.119-19.7s-32.836,50.15-42.388,51.344,19.7-48.359,19.7-48.359c-18.508-1.791-65.672,20.9-65.672,20.9s2.985,58.507-6.567,57.313,0-51.94,0-51.94c-17.911,5.373-34.627,26.269-34.627,26.269-20.9,34.03,23.881,59.1,23.881,59.1s.6,20.3-11.94,43.583h0a69.08,69.08,0,0,0-5.705,11.606h4.883q.6-1.964,1.326-3.79a.027.027,0,0,1,.009-.022l.022-.052c.334-.755.815-1.828,1.414-3.136l0-.005s0,0,0-.007c1.492-2.92,2.5-5.078,3.137-6.635a.041.041,0,0,0,.005-.014c4.47-9.167,10.909-21.111,15.2-23.617a9.46,9.46,0,0,1-1.046-2.24l1.046,2.24c8.358,17.911,50.149,20.9,73.433,16.12s13.135-11.344.6-22-38.806-7.849-46.568-12.028,3.582-8.358,19.105-7.164,23.283,16.717,48.358,19.1,44.18-44.776,44.18-44.776c-17.314,5.373-48.359-4.179-49.552-10.149s44.776-5.373,51.94-7.164,19.7-16.12,11.94-44.776" transform="translate(1215.326 -147.094)" fill="#0f7d92" opacity="0.1"/>
    <path id="Контур_585" data-name="Контур 585" d="M193.34,10.7c-25.088-28.542-75.589,9.037-75.589,9.037s-9.422,76.142-19.721,82.9S93.372,35.97,93.372,35.97C71.1,44.357,29.719,97.036,29.719,97.036s36.447,65.529,24.8,69.548-29.311-59.67-29.311-59.67C7.664,123.195.251,156.633.251,156.633c-4.8,50.886,60.789,54.424,60.789,54.424s12.141,22.983,10.877,56.806h0a88.465,88.465,0,0,0,0,16.553l5.609-2.756c-.281-1.729-.49-3.431-.616-5.1a.035.035,0,0,1,0-.031c0-.024,0-.048-.005-.072-.042-1.056-.1-2.56-.145-4.4v-.007s0-.005,0-.009c.066-4.2.006-7.244-.141-9.392a.08.08,0,0,0,0-.02c-.038-13.054.619-30.409,4.139-35.711a12.117,12.117,0,0,1-2.464-1.983l2.464,1.983c19.71,15.859,69.4-4.3,93.458-22.922s8.688-20.443-11.73-25.613-49.01,12.882-60.285,12.461-.6-11.623,17.905-19.011,36.182,6.064,66.336-5.342,25.485-76.371,25.485-76.371c-16.858,15.943-57.913,22.49-62.654,16.3s48.408-31.441,55.627-37.542S218.427,39.244,193.34,10.7" transform="translate(926.895 832.106) rotate(-87)" fill="#0f7d92" opacity="0.2"/>
    <g id="Сгруппировать_1565" data-name="Сгруппировать 1565" transform="translate(1667.447 117.01)">
      <g transform="matrix(1, 0, 0, 1, -740.55, -72.01)" filter="url(#Прямоугольник_937)">
        <rect id="Прямоугольник_937-2" data-name="Прямоугольник 937" width="196" height="196" rx="50" transform="translate(740.11 72)" fill="#0f7d92" opacity="0.2"/>
      </g>
      <rect id="Прямоугольник_941" data-name="Прямоугольник 941" width="79.515" height="79.914" rx="15" transform="translate(57.571 57.571)" fill="#0f7d92" opacity="0.3"/>
      <path id="Icon_color" data-name="Icon color" d="M2.741,0H24.673a2.741,2.741,0,0,1,2.741,2.741V19.19a2.741,2.741,0,0,1-2.741,2.741H2.741A2.741,2.741,0,0,1,0,19.19V2.741A2.741,2.741,0,0,1,2.741,0ZM15.969,15.695l8.7-6.1V6.717L14.6,13.776a1.563,1.563,0,0,1-1.782,0L2.741,6.717V9.6l8.7,6.1A3.948,3.948,0,0,0,15.969,15.695Z" transform="translate(84.986 86.357)" fill="#0f7d92" fill-rule="evenodd"/>
    </g>
  </g>
</svg>
