<svg xmlns="http://www.w3.org/2000/svg" xmlns:xlink="http://www.w3.org/1999/xlink" width="1305.009" height="790.828" viewBox="0 0 1305.009 790.828">
  <defs>
    <radialGradient id="radial-gradient" cx="0.5" cy="0.5" r="0.5" gradientUnits="objectBoundingBox">
      <stop offset="0" stop-color="#176ce2" stop-opacity="0"/>
      <stop offset="1" stop-color="#176ce2"/>
    </radialGradient>
  </defs>
  <g id="Сгруппировать_2123" data-name="Сгруппировать 2123" transform="translate(-72 -112)">
    <rect id="Прямоугольник_942" data-name="Прямоугольник 942" width="34.009" height="34.3" rx="15" transform="translate(839 773)" fill="#176ce2" opacity="0.1"/>
    <rect id="Прямоугольник_947" data-name="Прямоугольник 947" width="34.009" height="34.3" rx="15" transform="translate(140 136)" fill="#0f7d92" opacity="0.2"/>
    <rect id="Прямоугольник_944" data-name="Прямоугольник 944" width="34.009" height="34.3" rx="15" transform="translate(1343 228)" fill="#e6704a" opacity="0.2"/>
    <rect id="Прямоугольник_945" data-name="Прямоугольник 945" width="20.009" height="20.3" rx="10.004" transform="translate(981 131)" fill="#0f7d92" opacity="0.2"/>
    <rect id="Прямоугольник_949" data-name="Прямоугольник 949" width="20.009" height="20.3" rx="10.004" transform="translate(494 504)" fill="#e6704a" opacity="0.1"/>
    <rect id="Прямоугольник_946" data-name="Прямоугольник 946" width="14.009" height="14.3" rx="7.004" transform="translate(743 112)" fill="#176ce2" opacity="0.094"/>
    <rect id="Прямоугольник_948" data-name="Прямоугольник 948" width="14.009" height="14.3" rx="7.004" transform="translate(370 156)" fill="#176ce2" opacity="0.1"/>
    <rect id="Прямоугольник_943" data-name="Прямоугольник 943" width="24.009" height="24.3" rx="12.004" transform="translate(72 619)" fill="#0f7d92" opacity="0.2"/>
    <path id="Контур_664" data-name="Контур 664" d="M59.5,0h.01a59.5,59.5,0,0,1,59.5,59.5v.357a59.5,59.5,0,0,1-59.5,59.5H59.5A59.5,59.5,0,0,1,0,59.857V59.5A59.5,59.5,0,0,1,59.5,0Z" transform="translate(485.491 783.473)" opacity="0.1" fill="url(#radial-gradient)"/>
  </g>
</svg>
