<svg xmlns="http://www.w3.org/2000/svg" xmlns:xlink="http://www.w3.org/1999/xlink" width="1294.923" height="800.828" viewBox="0 0 1294.923 800.828">
  <defs>
    <radialGradient id="radial-gradient" cx="0.5" cy="0.5" r="0.5" gradientUnits="objectBoundingBox">
      <stop offset="0" stop-color="#176ce2" stop-opacity="0"/>
      <stop offset="1" stop-color="#176ce2"/>
    </radialGradient>
  </defs>
  <g id="Сгруппировать_2128" data-name="Сгруппировать 2128" transform="translate(42.009 -3406)">
    <rect id="Прямоугольник_1102" data-name="Прямоугольник 1102" width="128.009" height="130.3" rx="64" transform="translate(-42.009 3456)" opacity="0.05" fill="url(#radial-gradient)"/>
    <path id="Контур_579" data-name="Контур 579" d="M59.5,0h.01a59.5,59.5,0,0,1,59.5,59.5v.357a59.5,59.5,0,0,1-59.5,59.5H59.5A59.5,59.5,0,0,1,0,59.857V59.5A59.5,59.5,0,0,1,59.5,0Z" transform="translate(619.491 4087.473)" opacity="0.1" fill="url(#radial-gradient)"/>
    <rect id="Прямоугольник_1099" data-name="Прямоугольник 1099" width="34.009" height="34.3" rx="15" transform="translate(640 3406)" fill="#e6704a" opacity="0.1"/>
    <rect id="Прямоугольник_1101" data-name="Прямоугольник 1101" width="20.009" height="20.3" rx="10.004" transform="translate(175 4067)" fill="#0f7d92" opacity="0.2"/>
    <rect id="Прямоугольник_1100" data-name="Прямоугольник 1100" width="18.795" height="18.89" rx="9.398" transform="translate(1234.119 3417.591)" fill="#176ce2" opacity="0.201"/>
  </g>
</svg>
