<svg xmlns="http://www.w3.org/2000/svg" width="440.259" height="293"><defs><filter id="b" x="53.258" y="0" width="293" height="293" filterUnits="userSpaceOnUse"><feOffset dy="3"/><feGaussianBlur stdDeviation="25" result="blur"/><feFlood flood-color="#176ce2" flood-opacity=".102"/><feComposite operator="in" in2="blur"/><feComposite in="SourceGraphic"/></filter><filter id="c" x="53.258" y="0" width="293" height="293" filterUnits="userSpaceOnUse"><feOffset dy="3"/><feGaussianBlur stdDeviation="25" result="blur-2"/><feFlood flood-color="#176ce2" flood-opacity=".102"/><feComposite operator="in" in2="blur-2"/><feComposite in="SourceGraphic"/></filter><clipPath id="a"><path fill="none" d="M0 0h82v199H0z"/></clipPath></defs><g data-name="Сгруппировать 2178"><g data-name="Повторяющаяся сетка 35" transform="rotate(-90 130.629 -36.629)" opacity=".2" clip-path="url(#a)" fill="#fff"><circle data-name="Эллипс 31" cx="3" cy="3" r="3"/><circle data-name="Эллипс 31" cx="3" cy="3" r="3" transform="translate(24)"/><circle data-name="Эллипс 31" cx="3" cy="3" r="3" transform="translate(48)"/><circle data-name="Эллипс 31" cx="3" cy="3" r="3" transform="translate(72)"/><circle data-name="Эллипс 31" cx="3" cy="3" r="3" transform="translate(0 24)"/><circle data-name="Эллипс 31" cx="3" cy="3" r="3" transform="translate(24 24)"/><circle data-name="Эллипс 31" cx="3" cy="3" r="3" transform="translate(48 24)"/><circle data-name="Эллипс 31" cx="3" cy="3" r="3" transform="translate(72 24)"/><circle data-name="Эллипс 31" cx="3" cy="3" r="3" transform="translate(0 48)"/><circle data-name="Эллипс 31" cx="3" cy="3" r="3" transform="translate(24 48)"/><circle data-name="Эллипс 31" cx="3" cy="3" r="3" transform="translate(48 48)"/><circle data-name="Эллипс 31" cx="3" cy="3" r="3" transform="translate(72 48)"/><circle data-name="Эллипс 31" cx="3" cy="3" r="3" transform="translate(0 72)"/><circle data-name="Эллипс 31" cx="3" cy="3" r="3" transform="translate(24 72)"/><circle data-name="Эллипс 31" cx="3" cy="3" r="3" transform="translate(48 72)"/><circle data-name="Эллипс 31" cx="3" cy="3" r="3" transform="translate(72 72)"/><circle data-name="Эллипс 31" cx="3" cy="3" r="3" transform="translate(0 96)"/><circle data-name="Эллипс 31" cx="3" cy="3" r="3" transform="translate(24 96)"/><circle data-name="Эллипс 31" cx="3" cy="3" r="3" transform="translate(48 96)"/><circle data-name="Эллипс 31" cx="3" cy="3" r="3" transform="translate(72 96)"/><circle data-name="Эллипс 31" cx="3" cy="3" r="3" transform="translate(0 120)"/><circle data-name="Эллипс 31" cx="3" cy="3" r="3" transform="translate(24 120)"/><circle data-name="Эллипс 31" cx="3" cy="3" r="3" transform="translate(48 120)"/><circle data-name="Эллипс 31" cx="3" cy="3" r="3" transform="translate(72 120)"/><circle data-name="Эллипс 31" cx="3" cy="3" r="3" transform="translate(0 144)"/><circle data-name="Эллипс 31" cx="3" cy="3" r="3" transform="translate(24 144)"/><circle data-name="Эллипс 31" cx="3" cy="3" r="3" transform="translate(48 144)"/><circle data-name="Эллипс 31" cx="3" cy="3" r="3" transform="translate(72 144)"/><circle data-name="Эллипс 31" cx="3" cy="3" r="3" transform="translate(0 168)"/><circle data-name="Эллипс 31" cx="3" cy="3" r="3" transform="translate(24 168)"/><circle data-name="Эллипс 31" cx="3" cy="3" r="3" transform="translate(48 168)"/><circle data-name="Эллипс 31" cx="3" cy="3" r="3" transform="translate(72 168)"/><circle data-name="Эллипс 31" cx="3" cy="3" r="3" transform="translate(0 192)"/><circle data-name="Эллипс 31" cx="3" cy="3" r="3" transform="translate(24 192)"/><circle data-name="Эллипс 31" cx="3" cy="3" r="3" transform="translate(48 192)"/><circle data-name="Эллипс 31" cx="3" cy="3" r="3" transform="translate(72 192)"/></g><path data-name="Контур 662" d="M425.078 56.242c21.752 17.185-3.697 55.414-3.697 55.414s-55.113 9.772-59.646 17.533 48.752.85 48.752.85c-5.26 16.543-42.059 48.702-42.059 48.702s-49.131-24.05-51.614-15.411 44.59 19.075 44.59 19.075c-11.19 13.403-35.268 20.08-35.268 20.08-36.89 5.438-41.967-42.208-41.967-42.208s-17.207-7.967-41.8-5.755a64.538 64.538 0 01-12.065.635l1.793-4.192c1.271.134 2.516.226 3.74.255a.025.025 0 00.024-.001l.053-.003c.77-.01 1.869-.029 3.212-.062h.012c3.054-.209 5.277-.277 6.848-.26a.059.059 0 01.014 0c9.511-.47 22.13-1.612 25.858-4.38a8.84 8.84 0 001.538 1.722l-1.538-1.722c-12.307-13.753.48-50.727 13.13-68.962s14.563-7.11 19.109 7.568-7.516 36.198-6.776 44.395 8.492-.005 13.167-13.77-5.8-26.132 1.362-48.531 54.663-21.474 54.663-21.474c-10.972 12.892-14.174 43.05-9.487 46.268s21.057-36.467 25.227-41.96 21.074-10.993 42.826 6.195" fill="#176ce2" opacity=".2"/><path data-name="Контур 663" d="M1.786 72.631c5.662-20.906 40.941-14.373 40.941-14.373s23.955 36.586 30.924 37.457-14.373-35.278-14.373-35.278c13.5-1.307 47.91 15.245 47.91 15.245s-2.178 42.683 4.791 41.812 0-37.892 0-37.892c13.067 3.92 25.262 19.164 25.262 19.164 15.244 24.826-17.422 43.119-17.422 43.119s-.435 14.809 8.711 31.8a50.391 50.391 0 014.162 8.467h-3.562q-.437-1.433-.967-2.765a.02.02 0 00-.007-.016l-.016-.038c-.244-.55-.594-1.333-1.032-2.288-1.088-2.13-1.823-3.7-2.288-4.841a.03.03 0 010-.01c-3.261-6.688-7.959-15.4-11.092-17.229a6.9 6.9 0 00.763-1.634l-.763 1.634c-6.1 13.067-36.585 15.244-53.572 11.76s-9.582-8.276-.436-16.051 28.31-5.726 33.973-8.775-2.613-6.1-13.938-5.227-16.986 12.2-35.279 13.937-32.23-32.666-32.23-32.666c12.631 3.92 35.279-3.049 36.15-7.4s-32.666-3.92-37.892-5.227-14.373-11.76-8.711-32.666" fill="#176ce2" opacity=".2"/><g data-name="Сгруппировать 1618" transform="translate(-1055.742 -40)"><g transform="translate(1055.74 40)" filter="url(#b)"><rect data-name="Прямоугольник 1589" width="143" height="143" rx="50" transform="translate(128.26 72)" fill="#0d1b39"/></g><g transform="translate(1055.74 40)" filter="url(#c)"><rect data-name="Прямоугольник 937" width="143" height="143" rx="50" transform="translate(128.26 72)" fill="#176ce2" opacity=".2"/></g><rect data-name="Прямоугольник 941" width="58.009" height="58.3" rx="15" transform="translate(1226 154)" fill="#176ce2" opacity=".3"/><path data-name="Icon color" d="M1249 173h12a2 2 0 012 2v10.76a3 3 0 01-.88 2.12l-4.24 4.24a3 3 0 01-2.12.88H1249a2 2 0 01-2-2v-16a2 2 0 012-2zm12 2h-12v16h6v-5a1 1 0 011-1h5z" fill="#176ce2" fill-rule="evenodd"/></g></g></svg>