<svg xmlns="http://www.w3.org/2000/svg" width="56.009" height="56.3"><g data-name="Group 2188"><g data-name="Group 2187" transform="translate(-673 -2456)"><g data-name="Rectangle 1179" transform="translate(673 2456)" fill="#fff" stroke="#fff" stroke-width="3"><rect width="56.009" height="56.3" rx="17" stroke="none"/><rect x="1.5" y="1.5" width="53.009" height="53.3" rx="15.5" fill="none"/></g><rect data-name="Rectangle 1178" width="52.009" height="52.3" rx="15" transform="translate(675 2458)" fill="#176ce2"/></g><path data-name="Icon color" d="M23 18h12a2 2 0 012 2v10.76a3 3 0 01-.88 2.12l-4.24 4.24a3 3 0 01-2.12.88H23a2 2 0 01-2-2V20a2 2 0 012-2zm12 2H23v16h6v-5a1 1 0 011-1h5z" fill="#fff" fill-rule="evenodd"/></g></svg>